<svg version="1.1" xmlns="http://www.w3.org/2000/svg" xmlns:xlink="http://www.w3.org/1999/xlink" width="1047" height="472"><defs></defs><g><g transform="translate(-6,-6) scale(1,1)"><rect fill="#C0C0C0" stroke="none" x="23" y="39" width="474" height="220" opacity="0.2"></rect></g><g transform="translate(-6,-6) scale(1,1)"><rect fill="#ffffff" stroke="none" x="16" y="32" width="474" height="220"></rect></g><g transform="translate(-6,-6) scale(1,1)"><path fill="none" stroke="#000000" d="M 16 32 L 490 32 L 490 252 L 16 252 L 16 32 Z Z" stroke-miterlimit="10"></path></g><g transform="translate(-6,-6) scale(1,1)"><path fill="none" stroke="#000000" d="M 16 57 L 490 57" stroke-miterlimit="10"></path></g><g transform="translate(-6,-6) scale(1,1)"><path fill="none" stroke="#000000" d="M 16 200 L 490 200" stroke-miterlimit="10"></path></g><g transform="translate(-6,-6) scale(1,1)"><g><path fill="none" stroke="none"></path><text fill="#000000" stroke="none" font-family="Arial" font-size="13px" font-style="normal" font-weight="bold" text-decoration="none" x="234.5" y="51.5">Player</text></g></g><g transform="translate(-6,-6) scale(1,1)"><g><path fill="none" stroke="none"></path><text fill="#000000" stroke="none" font-family="Arial" font-size="13px" font-style="normal" font-weight="normal" text-decoration="none" x="21" y="74.5">+direction_move: Set&lt;Direction&gt;</text></g></g><g transform="translate(-6,-6) scale(1,1)"><g><path fill="none" stroke="none"></path><text fill="#000000" stroke="none" font-family="Arial" font-size="13px" font-style="normal" font-weight="normal" text-decoration="none" x="21" y="89.5">+position: RowPosition | ColumnPosition</text></g></g><g transform="translate(-6,-6) scale(1,1)"><g><path fill="none" stroke="none"></path><text fill="#000000" stroke="none" font-family="Arial" font-size="13px" font-style="normal" font-weight="normal" text-decoration="none" x="21" y="104.5">+life_count: Int</text></g></g><g transform="translate(-6,-6) scale(1,1)"><g><path fill="none" stroke="none"></path><text fill="#000000" stroke="none" font-family="Arial" font-size="13px" font-style="normal" font-weight="normal" text-decoration="none" x="21" y="119.5">+run_speed: number</text></g></g><g transform="translate(-6,-6) scale(1,1)"><g><path fill="none" stroke="none"></path><text fill="#000000" stroke="none" font-family="Arial" font-size="13px" font-style="normal" font-weight="normal" text-decoration="none" x="21" y="134.5">+bomb_strength: Int</text></g></g><g transform="translate(-6,-6) scale(1,1)"><g><path fill="none" stroke="none"></path><text fill="#000000" stroke="none" font-family="Arial" font-size="13px" font-style="normal" font-weight="normal" text-decoration="none" x="21" y="149.5">+tick_count_since_turn: number</text></g></g><g transform="translate(-6,-6) scale(1,1)"><g><path fill="none" stroke="none"></path><text fill="#000000" stroke="none" font-family="Arial" font-size="13px" font-style="normal" font-weight="normal" text-decoration="none" x="21" y="164.5">+time_since_damage: number</text></g></g><g transform="translate(-6,-6) scale(1,1)"><g><path fill="none" stroke="none"></path><text fill="#000000" stroke="none" font-family="Arial" font-size="13px" font-style="normal" font-weight="normal" text-decoration="none" x="21" y="179.5">+bomb_capacity: Int</text></g></g><g transform="translate(-6,-6) scale(1,1)"><g><path fill="none" stroke="none"></path><text fill="#000000" stroke="none" font-family="Arial" font-size="13px" font-style="normal" font-weight="normal" text-decoration="none" x="21" y="194.5">+bomb_kick: boolean</text></g></g><g transform="translate(-6,-6) scale(1,1)"><g><path fill="none" stroke="none"></path><text fill="#000000" stroke="none" font-family="Arial" font-size="13px" font-style="normal" font-weight="normal" text-decoration="none" x="21" y="217.5">+user_command(command: Accelerate | Decelerate | PlantBomb)</text></g></g><g transform="translate(-6,-6) scale(1,1)"><g><path fill="none" stroke="none"></path><text fill="#000000" stroke="none" font-family="Arial" font-size="13px" font-style="normal" font-weight="normal" text-decoration="none" x="21" y="232.5">+update(event: Event, obstacles: Set&lt;ColumnRowPosition&gt;): Array&lt;Explosion&gt;</text></g></g><g transform="translate(-6,-6) scale(1,1)"><g><path fill="none" stroke="none"></path><text fill="#000000" stroke="none" font-family="Arial" font-size="13px" font-style="normal" font-weight="normal" text-decoration="none" x="21" y="247.5">+take_damage(explosions: Array&lt;Explosion&gt;)</text></g></g><g transform="translate(-6,-6) scale(1,1)"><rect fill="#C0C0C0" stroke="none" x="23" y="383" width="309" height="70" opacity="0.2"></rect></g><g transform="translate(-6,-6) scale(1,1)"><rect fill="#ffffff" stroke="none" x="16" y="376" width="309" height="70"></rect></g><g transform="translate(-6,-6) scale(1,1)"><path fill="none" stroke="#000000" d="M 16 376 L 325 376 L 325 446 L 16 446 L 16 376 Z Z" stroke-miterlimit="10"></path></g><g transform="translate(-6,-6) scale(1,1)"><path fill="none" stroke="#000000" d="M 16 401 L 325 401" stroke-miterlimit="10"></path></g><g transform="translate(-6,-6) scale(1,1)"><path fill="none" stroke="#000000" d="M 16 424 L 325 424" stroke-miterlimit="10"></path></g><g transform="translate(-6,-6) scale(1,1)"><g><path fill="none" stroke="none"></path><text fill="#000000" stroke="none" font-family="Arial" font-size="13px" font-style="normal" font-weight="bold" text-decoration="none" x="153.5" y="395.5">Bomb</text></g></g><g transform="translate(-6,-6) scale(1,1)"><g><path fill="none" stroke="none"></path><text fill="#000000" stroke="none" font-family="Arial" font-size="13px" font-style="normal" font-weight="normal" text-decoration="none" x="21" y="418.5">+fuse: number</text></g></g><g transform="translate(-6,-6) scale(1,1)"><g><path fill="none" stroke="none"></path><text fill="#000000" stroke="none" font-family="Arial" font-size="13px" font-style="normal" font-weight="normal" text-decoration="none" x="21" y="441.5">+update(event: Event): "exploding" | "not exploding"</text></g></g><g transform="translate(-6,-6) scale(1,1)"><rect fill="#C0C0C0" stroke="none" x="655" y="111" width="395" height="130" opacity="0.2"></rect></g><g transform="translate(-6,-6) scale(1,1)"><rect fill="#ffffff" stroke="none" x="648" y="104" width="395" height="130"></rect></g><g transform="translate(-6,-6) scale(1,1)"><path fill="none" stroke="#000000" d="M 648 104 L 1043 104 L 1043 234 L 648 234 L 648 104 Z Z" stroke-miterlimit="10"></path></g><g transform="translate(-6,-6) scale(1,1)"><path fill="none" stroke="#000000" d="M 648 129 L 1043 129" stroke-miterlimit="10"></path></g><g transform="translate(-6,-6) scale(1,1)"><path fill="none" stroke="#000000" d="M 648 152 L 1043 152" stroke-miterlimit="10"></path></g><g transform="translate(-6,-6) scale(1,1)"><g><path fill="none" stroke="none"></path><text fill="#000000" stroke="none" font-family="Arial" font-size="13px" font-style="normal" font-weight="bold" text-decoration="none" x="828" y="123.5">Game</text></g></g><g transform="translate(-6,-6) scale(1,1)"><g><path fill="none" stroke="none"></path><text fill="#000000" stroke="none" font-family="Arial" font-size="13px" font-style="normal" font-weight="normal" text-decoration="none" x="653" y="146.5">+obstacles: Set&lt;ColumnRowPosition&gt;</text></g></g><g transform="translate(-6,-6) scale(1,1)"><g><path fill="none" stroke="none"></path><text fill="#000000" stroke="none" font-family="Arial" font-size="13px" font-style="normal" font-weight="normal" text-decoration="none" x="653" y="169.5">+update(event: Tick | UserCommandEvent)</text></g></g><g transform="translate(-6,-6) scale(1,1)"><g><path fill="none" stroke="none"></path><text fill="#000000" stroke="none" font-family="Arial" font-size="13px" font-style="normal" font-weight="normal" text-decoration="none" x="653" y="184.5">+addPlayer(): PlayerId | null</text></g></g><g transform="translate(-6,-6) scale(1,1)"><g><path fill="none" stroke="none"></path><text fill="#000000" stroke="none" font-family="Arial" font-size="13px" font-style="normal" font-weight="normal" text-decoration="none" x="653" y="199.5">+deletePlayer(player_id: PlayerId)</text></g></g><g transform="translate(-6,-6) scale(1,1)"><g><path fill="none" stroke="none"></path><text fill="#000000" stroke="none" font-family="Arial" font-size="13px" font-style="normal" font-weight="normal" text-decoration="none" x="653" y="214.5">+explode_bombs(explosion: Array&lt;Explosion&gt;): Array&lt;Explosion&gt;</text></g></g><g transform="translate(-6,-6) scale(1,1)"><g><path fill="none" stroke="none"></path><text fill="#000000" stroke="none" font-family="Arial" font-size="13px" font-style="normal" font-weight="normal" text-decoration="none" x="653" y="229.5">+explode_obstacles(explosion: Explosion)</text></g></g><g transform="translate(-6,-6) scale(1,1)"><rect fill="#C0C0C0" stroke="none" x="375" y="335" width="297" height="130" opacity="0.2"></rect></g><g transform="translate(-6,-6) scale(1,1)"><rect fill="#ffffff" stroke="none" x="368" y="328" width="297" height="130"></rect></g><g transform="translate(-6,-6) scale(1,1)"><path fill="none" stroke="#000000" d="M 368 328 L 665 328 L 665 458 L 368 458 L 368 328 Z Z" stroke-miterlimit="10"></path></g><g transform="translate(-6,-6) scale(1,1)"><path fill="none" stroke="#000000" d="M 368 353 L 665 353" stroke-miterlimit="10"></path></g><g transform="translate(-6,-6) scale(1,1)"><path fill="none" stroke="#000000" d="M 368 421 L 665 421" stroke-miterlimit="10"></path></g><g transform="translate(-6,-6) scale(1,1)"><g><path fill="none" stroke="none"></path><text fill="#000000" stroke="none" font-family="Arial" font-size="13px" font-style="normal" font-weight="bold" text-decoration="none" x="488" y="347.5">Explosion</text></g></g><g transform="translate(-6,-6) scale(1,1)"><g><path fill="none" stroke="none"></path><text fill="#000000" stroke="none" font-family="Arial" font-size="13px" font-style="normal" font-weight="normal" text-decoration="none" x="373" y="370.5">+center: ColumnRowPosition</text></g></g><g transform="translate(-6,-6) scale(1,1)"><g><path fill="none" stroke="none"></path><text fill="#000000" stroke="none" font-family="Arial" font-size="13px" font-style="normal" font-weight="normal" text-decoration="none" x="373" y="385.5">+row_rectangle: RowRectangle | null</text></g></g><g transform="translate(-6,-6) scale(1,1)"><g><path fill="none" stroke="none"></path><text fill="#000000" stroke="none" font-family="Arial" font-size="13px" font-style="normal" font-weight="normal" text-decoration="none" x="373" y="400.5">+column_rectangle: ColumnRectangle | null</text></g></g><g transform="translate(-6,-6) scale(1,1)"><g><path fill="none" stroke="none"></path><text fill="#000000" stroke="none" font-family="Arial" font-size="13px" font-style="normal" font-weight="normal" text-decoration="none" x="373" y="415.5">+progress: number</text></g></g><g transform="translate(-6,-6) scale(1,1)"><g><path fill="none" stroke="none"></path><text fill="#000000" stroke="none" font-family="Arial" font-size="13px" font-style="normal" font-weight="normal" text-decoration="none" x="373" y="438.5">+update(event: Event): "faded" | "present"</text></g></g><g transform="translate(-6,-6) scale(1,1)"><g><path fill="none" stroke="none"></path><text fill="#000000" stroke="none" font-family="Arial" font-size="13px" font-style="normal" font-weight="normal" text-decoration="none" x="373" y="453.5">+scorched_positions(): Set&lt;ColumnRowPosition&gt;</text></g></g><g transform="translate(-6,-6) scale(1,1)"><rect fill="#C0C0C0" stroke="none" x="132.5085836909871" y="259" width="186" height="22" opacity="0.2"></rect></g><g transform="translate(-6,-6) scale(1,1)"><path fill="none" stroke="#000000" d="M 182 375 L 214 275" stroke-miterlimit="10"></path></g><g transform="translate(-6,-6) scale(1,1)"><path fill="#000000" stroke="none" d="M 214.9119097398422 285.96213576938277 L 214 275 L 206.8934170220543 283.39621809969066 L 207.29493400371675 295.95333123838515"></path></g><g transform="translate(-6,-6) scale(1,1)"><path fill="none" stroke="#000000" d="M 214.9119097398422 285.96213576938277 L 214 275 L 206.8934170220543 283.39621809969066 L 207.29493400371675 295.95333123838515 L 214.9119097398422 285.96213576938277" stroke-miterlimit="10"></path></g><g transform="translate(-6,-6) scale(1,1)"><path fill="none" stroke="#000000" d="M 181.0880902601578 364.03786423061723 L 182 375 L 189.1065829779457 366.60378190030934" stroke-miterlimit="10"></path></g><g transform="translate(-6,-6) scale(1,1)"><g><path fill="none" stroke="none"></path><text fill="#000000" stroke="none" font-family="Arial" font-size="13px" font-style="normal" font-weight="normal" text-decoration="none" x="150.5" y="351.5">+bombs</text></g></g><g transform="translate(-6,-6) scale(1,1)"><g><path fill="none" stroke="none"></path><text fill="#000000" stroke="none" font-family="Arial" font-size="13px" font-style="normal" font-weight="normal" text-decoration="none" x="196.5" y="364.5">*</text></g></g><g transform="translate(-6,-6) scale(1,1)"><rect fill="#ffffff" stroke="none" x="125.50858369098711" y="252" width="186" height="22"></rect></g><g transform="translate(-6,-6) scale(1,1)"><path fill="none" stroke="#000000" d="M 125.50858369098711 252 L 311.5085836909871 252 L 311.5085836909871 274 L 125.50858369098711 274 L 125.50858369098711 252 Z Z" stroke-miterlimit="10"></path></g><g transform="translate(-6,-6) scale(1,1)"><g><path fill="none" stroke="none"></path><text fill="#000000" stroke="none" font-family="Arial" font-size="13px" font-style="normal" font-weight="normal" text-decoration="none" x="130.5085836909871" y="269.5">+position: ColumnRowPosition</text></g></g><g transform="translate(-6,-6) scale(1,1)"><rect fill="#C0C0C0" stroke="none" x="590" y="155.59604519774012" width="65" height="22" opacity="0.2"></rect></g><g transform="translate(-6,-6) scale(1,1)"><path fill="none" stroke="#000000" d="M 491 153 L 582 157" stroke-miterlimit="10"></path></g><g transform="translate(-6,-6) scale(1,1)"><path fill="#000000" stroke="none" d="M 571.6622735108733 160.75917690937894 L 582 157 L 572.0319840131849 152.34826298178845 L 560.0212227228947 156.03389989990745"></path></g><g transform="translate(-6,-6) scale(1,1)"><path fill="none" stroke="#000000" d="M 571.6622735108733 160.75917690937894 L 582 157 L 572.0319840131849 152.34826298178845 L 560.0212227228947 156.03389989990745 L 571.6622735108733 160.75917690937894" stroke-miterlimit="10"></path></g><g transform="translate(-6,-6) scale(1,1)"><path fill="none" stroke="#000000" d="M 501.33772648912674 149.24082309062106 L 491 153 L 500.96801598681503 157.65173701821155" stroke-miterlimit="10"></path></g><g transform="translate(-6,-6) scale(1,1)"><g><path fill="none" stroke="none"></path><text fill="#000000" stroke="none" font-family="Arial" font-size="13px" font-style="normal" font-weight="normal" text-decoration="none" x="491.5" y="145.5">+players</text></g></g><g transform="translate(-6,-6) scale(1,1)"><g><path fill="none" stroke="none"></path><text fill="#000000" stroke="none" font-family="Arial" font-size="13px" font-style="normal" font-weight="normal" text-decoration="none" x="500.5" y="172.5">2..4</text></g></g><g transform="translate(-6,-6) scale(1,1)"><rect fill="#ffffff" stroke="none" x="583" y="148.59604519774012" width="65" height="22"></rect></g><g transform="translate(-6,-6) scale(1,1)"><path fill="none" stroke="#000000" d="M 583 148.59604519774012 L 648 148.59604519774012 L 648 170.59604519774012 L 583 170.59604519774012 L 583 148.59604519774012 Z Z" stroke-miterlimit="10"></path></g><g transform="translate(-6,-6) scale(1,1)"><g><path fill="none" stroke="none"></path><text fill="#000000" stroke="none" font-family="Arial" font-size="13px" font-style="normal" font-weight="normal" text-decoration="none" x="588" y="166.09604519774012">+PlayerId</text></g></g><g transform="translate(-6,-6) scale(1,1)"><path fill="none" stroke="#000000" d="M 613 327 L 748 235" stroke-miterlimit="10"></path></g><g transform="translate(-6,-6) scale(1,1)"><path fill="#000000" stroke="none" d="M 741.972581043239 244.20164228383595 L 748 235 L 737.2314275256687 237.24451483957517 L 729.8201498788077 247.38923119370142"></path></g><g transform="translate(-6,-6) scale(1,1)"><path fill="none" stroke="#000000" d="M 741.972581043239 244.20164228383595 L 748 235 L 737.2314275256687 237.24451483957517 L 729.8201498788077 247.38923119370142 L 741.972581043239 244.20164228383595" stroke-miterlimit="10"></path></g><g transform="translate(-6,-6) scale(1,1)"><path fill="none" stroke="#000000" d="M 619.027418956761 317.79835771616405 L 613 327 L 623.7685724743313 324.7554851604248" stroke-miterlimit="10"></path></g><g transform="translate(-6,-6) scale(1,1)"><g><path fill="none" stroke="none"></path><text fill="#000000" stroke="none" font-family="Arial" font-size="13px" font-style="normal" font-weight="normal" text-decoration="none" x="590.5" y="305.5">+explosions</text></g></g><g transform="translate(-6,-6) scale(1,1)"><g><path fill="none" stroke="none"></path><text fill="#000000" stroke="none" font-family="Arial" font-size="13px" font-style="normal" font-weight="normal" text-decoration="none" x="634.5" y="331.5">*</text></g></g><g transform="translate(-6,-6) scale(1,1)"><rect fill="#C0C0C0" stroke="none" x="839" y="343" width="73" height="57" opacity="0.2"></rect></g><g transform="translate(-6,-6) scale(1,1)"><rect fill="#ffffff" stroke="none" x="832" y="336" width="73" height="57"></rect></g><g transform="translate(-6,-6) scale(1,1)"><path fill="none" stroke="#000000" d="M 832 336 L 905 336 L 905 393 L 832 393 L 832 336 Z Z" stroke-miterlimit="10"></path></g><g transform="translate(-6,-6) scale(1,1)"><path fill="none" stroke="#000000" d="M 832 374 L 905 374" stroke-miterlimit="10"></path></g><g transform="translate(-6,-6) scale(1,1)"><path fill="none" stroke="#000000" d="M 832 384 L 905 384" stroke-miterlimit="10"></path></g><g transform="translate(-6,-6) scale(1,1)"><g><path fill="none" stroke="none"></path><text fill="#000000" stroke="none" font-family="Arial" font-size="13px" font-style="normal" font-weight="normal" text-decoration="none" x="836.5" y="353.5">«interface»</text></g></g><g transform="translate(-6,-6) scale(1,1)"><g><path fill="none" stroke="none"></path><text fill="#000000" stroke="none" font-family="Arial" font-size="13px" font-style="normal" font-weight="bold" text-decoration="none" x="842.5" y="368.5">PowerUp</text></g></g><g transform="translate(-6,-6) scale(1,1)"><rect fill="#C0C0C0" stroke="none" x="695" y="431" width="80" height="44" opacity="0.2"></rect></g><g transform="translate(-6,-6) scale(1,1)"><rect fill="#ffffff" stroke="none" x="688" y="424" width="80" height="44"></rect></g><g transform="translate(-6,-6) scale(1,1)"><path fill="none" stroke="#000000" d="M 688 424 L 768 424 L 768 468 L 688 468 L 688 424 Z Z" stroke-miterlimit="10"></path></g><g transform="translate(-6,-6) scale(1,1)"><path fill="none" stroke="#000000" d="M 688 449 L 768 449" stroke-miterlimit="10"></path></g><g transform="translate(-6,-6) scale(1,1)"><path fill="none" stroke="#000000" d="M 688 459 L 768 459" stroke-miterlimit="10"></path></g><g transform="translate(-6,-6) scale(1,1)"><g><path fill="none" stroke="none"></path><text fill="#000000" stroke="none" font-family="Arial" font-size="13px" font-style="normal" font-weight="bold" text-decoration="none" x="698" y="443.5">RunSpeed</text></g></g><g transform="translate(-6,-6) scale(1,1)"><rect fill="#C0C0C0" stroke="none" x="783" y="431" width="107" height="44" opacity="0.2"></rect></g><g transform="translate(-6,-6) scale(1,1)"><rect fill="#ffffff" stroke="none" x="776" y="424" width="107" height="44"></rect></g><g transform="translate(-6,-6) scale(1,1)"><path fill="none" stroke="#000000" d="M 776 424 L 883 424 L 883 468 L 776 468 L 776 424 Z Z" stroke-miterlimit="10"></path></g><g transform="translate(-6,-6) scale(1,1)"><path fill="none" stroke="#000000" d="M 776 449 L 883 449" stroke-miterlimit="10"></path></g><g transform="translate(-6,-6) scale(1,1)"><path fill="none" stroke="#000000" d="M 776 459 L 883 459" stroke-miterlimit="10"></path></g><g transform="translate(-6,-6) scale(1,1)"><g><path fill="none" stroke="none"></path><text fill="#000000" stroke="none" font-family="Arial" font-size="13px" font-style="normal" font-weight="bold" text-decoration="none" x="788" y="443.5">BombStrength</text></g></g><g transform="translate(-6,-6) scale(1,1)"><rect fill="#C0C0C0" stroke="none" x="895" y="431" width="104" height="44" opacity="0.2"></rect></g><g transform="translate(-6,-6) scale(1,1)"><rect fill="#ffffff" stroke="none" x="888" y="424" width="104" height="44"></rect></g><g transform="translate(-6,-6) scale(1,1)"><path fill="none" stroke="#000000" d="M 888 424 L 992 424 L 992 468 L 888 468 L 888 424 Z Z" stroke-miterlimit="10"></path></g><g transform="translate(-6,-6) scale(1,1)"><path fill="none" stroke="#000000" d="M 888 449 L 992 449" stroke-miterlimit="10"></path></g><g transform="translate(-6,-6) scale(1,1)"><path fill="none" stroke="#000000" d="M 888 459 L 992 459" stroke-miterlimit="10"></path></g><g transform="translate(-6,-6) scale(1,1)"><g><path fill="none" stroke="none"></path><text fill="#000000" stroke="none" font-family="Arial" font-size="13px" font-style="normal" font-weight="bold" text-decoration="none" x="897.5" y="443.5">BombCapacity</text></g></g><g transform="translate(-6,-6) scale(1,1)"><rect fill="#C0C0C0" stroke="none" x="1007" y="431" width="42" height="44" opacity="0.2"></rect></g><g transform="translate(-6,-6) scale(1,1)"><rect fill="#ffffff" stroke="none" x="1000" y="424" width="42" height="44"></rect></g><g transform="translate(-6,-6) scale(1,1)"><path fill="none" stroke="#000000" d="M 1000 424 L 1042 424 L 1042 468 L 1000 468 L 1000 424 Z Z" stroke-miterlimit="10"></path></g><g transform="translate(-6,-6) scale(1,1)"><path fill="none" stroke="#000000" d="M 1000 449 L 1042 449" stroke-miterlimit="10"></path></g><g transform="translate(-6,-6) scale(1,1)"><path fill="none" stroke="#000000" d="M 1000 459 L 1042 459" stroke-miterlimit="10"></path></g><g transform="translate(-6,-6) scale(1,1)"><g><path fill="none" stroke="none"></path><text fill="#000000" stroke="none" font-family="Arial" font-size="13px" font-style="normal" font-weight="bold" text-decoration="none" x="1008" y="443.5">Kick</text></g></g><g transform="translate(-6,-6) scale(1,1)"><path fill="none" stroke="#000000" d="M 767 423 L 831 386" stroke-dasharray="3" stroke-miterlimit="10"></path></g><g transform="translate(-6,-6) scale(1,1)"><path fill="#FFFFFF" stroke="none" d="M 817.6173889004441 403.46154976392546 L 831 386 L 809.1898846934237 388.8842451896197"></path></g><g transform="translate(-6,-6) scale(1,1)"><path fill="none" stroke="#000000" d="M 817.6173889004441 403.46154976392546 L 831 386 L 809.1898846934237 388.8842451896197 L 817.6173889004441 403.46154976392546" stroke-miterlimit="10"></path></g><g transform="translate(-6,-6) scale(1,1)"><path fill="none" stroke="#000000" d="M 840 423 L 854 394" stroke-dasharray="3" stroke-miterlimit="10"></path></g><g transform="translate(-6,-6) scale(1,1)"><path fill="#FFFFFF" stroke="none" d="M 852.7453494055758 415.9641947698046 L 854 394 L 837.5817969916319 408.6438591216938"></path></g><g transform="translate(-6,-6) scale(1,1)"><path fill="none" stroke="#000000" d="M 852.7453494055758 415.9641947698046 L 854 394 L 837.5817969916319 408.6438591216938 L 852.7453494055758 415.9641947698046" stroke-miterlimit="10"></path></g><g transform="translate(-6,-6) scale(1,1)"><path fill="none" stroke="#000000" d="M 920 423 L 894 394" stroke-dasharray="3" stroke-miterlimit="10"></path></g><g transform="translate(-6,-6) scale(1,1)"><path fill="#FFFFFF" stroke="none" d="M 913.8366424578074 403.5135490749305 L 894 394 L 901.2995293338543 414.75371946192297"></path></g><g transform="translate(-6,-6) scale(1,1)"><path fill="none" stroke="#000000" d="M 913.8366424578074 403.5135490749305 L 894 394 L 901.2995293338543 414.75371946192297 L 913.8366424578074 403.5135490749305" stroke-miterlimit="10"></path></g><g transform="translate(-6,-6) scale(1,1)"><path fill="none" stroke="#000000" d="M 999 434 L 906 384" stroke-dasharray="3" stroke-miterlimit="10"></path></g><g transform="translate(-6,-6) scale(1,1)"><path fill="#FFFFFF" stroke="none" d="M 927.8887680157396 386.2094874412704 L 906 384 L 919.9153527430799 401.04003984841756"></path></g><g transform="translate(-6,-6) scale(1,1)"><path fill="none" stroke="#000000" d="M 927.8887680157396 386.2094874412704 L 906 384 L 919.9153527430799 401.04003984841756 L 927.8887680157396 386.2094874412704" stroke-miterlimit="10"></path></g><g transform="translate(-6,-6) scale(1,1)"><rect fill="#C0C0C0" stroke="none" x="879" y="23" width="161" height="72" opacity="0.2"></rect></g><g transform="translate(-6,-6) scale(1,1)"><rect fill="#ffffff" stroke="none" x="872" y="16" width="161" height="72"></rect></g><g transform="translate(-6,-6) scale(1,1)"><path fill="none" stroke="#000000" d="M 872 16 L 1033 16 L 1033 88 L 872 88 L 872 16 Z Z" stroke-miterlimit="10"></path></g><g transform="translate(-6,-6) scale(1,1)"><path fill="none" stroke="#000000" d="M 872 41 L 1033 41" stroke-miterlimit="10"></path></g><g transform="translate(-6,-6) scale(1,1)"><path fill="none" stroke="#000000" d="M 872 79 L 1033 79" stroke-miterlimit="10"></path></g><g transform="translate(-6,-6) scale(1,1)"><g><path fill="none" stroke="none"></path><text fill="#000000" stroke="none" font-family="Arial" font-size="13px" font-style="normal" font-weight="bold" text-decoration="none" x="894.5" y="35.5">ColumnRowPosition</text></g></g><g transform="translate(-6,-6) scale(1,1)"><g><path fill="none" stroke="none"></path><text fill="#000000" stroke="none" font-family="Arial" font-size="13px" font-style="normal" font-weight="normal" text-decoration="none" x="877" y="58.5">+column: Int</text></g></g><g transform="translate(-6,-6) scale(1,1)"><g><path fill="none" stroke="none"></path><text fill="#000000" stroke="none" font-family="Arial" font-size="13px" font-style="normal" font-weight="normal" text-decoration="none" x="877" y="73.5">+row: Int</text></g></g><g transform="translate(-6,-6) scale(1,1)"><rect fill="#C0C0C0" stroke="none" x="551" y="23" width="292" height="72" opacity="0.2"></rect></g><g transform="translate(-6,-6) scale(1,1)"><rect fill="#ffffff" stroke="none" x="544" y="16" width="292" height="72"></rect></g><g transform="translate(-6,-6) scale(1,1)"><path fill="none" stroke="#000000" d="M 544 16 L 836 16 L 836 88 L 544 88 L 544 16 Z Z" stroke-miterlimit="10"></path></g><g transform="translate(-6,-6) scale(1,1)"><path fill="none" stroke="#000000" d="M 544 41 L 836 41" stroke-miterlimit="10"></path></g><g transform="translate(-6,-6) scale(1,1)"><path fill="none" stroke="#000000" d="M 544 79 L 836 79" stroke-miterlimit="10"></path></g><g transform="translate(-6,-6) scale(1,1)"><g><path fill="none" stroke="none"></path><text fill="#000000" stroke="none" font-family="Arial" font-size="13px" font-style="normal" font-weight="bold" text-decoration="none" x="630" y="35.5">UserCommandEvent</text></g></g><g transform="translate(-6,-6) scale(1,1)"><g><path fill="none" stroke="none"></path><text fill="#000000" stroke="none" font-family="Arial" font-size="13px" font-style="normal" font-weight="normal" text-decoration="none" x="549" y="58.5">+player_id: PlayerId</text></g></g><g transform="translate(-6,-6) scale(1,1)"><g><path fill="none" stroke="none"></path><text fill="#000000" stroke="none" font-family="Arial" font-size="13px" font-style="normal" font-weight="normal" text-decoration="none" x="549" y="73.5">+command: Accelerate | Decelerate | PlantBomb</text></g></g><g transform="translate(-6,-6) scale(1,1)"><rect fill="#C0C0C0" stroke="none" x="766.3313253012049" y="241" width="186" height="22" opacity="0.2"></rect></g><g transform="translate(-6,-6) scale(1,1)"><path fill="none" stroke="#000000" d="M 864 335 L 854 257" stroke-miterlimit="10"></path></g><g transform="translate(-6,-6) scale(1,1)"><path fill="#000000" stroke="none" d="M 859.4676730762133 266.54487040936925 L 854 257 L 851.1169861174897 267.6154713015133 L 856.797614951678 278.82139662308873"></path></g><g transform="translate(-6,-6) scale(1,1)"><path fill="none" stroke="#000000" d="M 859.4676730762133 266.54487040936925 L 854 257 L 851.1169861174897 267.6154713015133 L 856.797614951678 278.82139662308873 L 859.4676730762133 266.54487040936925" stroke-miterlimit="10"></path></g><g transform="translate(-6,-6) scale(1,1)"><path fill="none" stroke="#000000" d="M 858.5323269237867 325.45512959063075 L 864 335 L 866.8830138825103 324.3845286984867" stroke-miterlimit="10"></path></g><g transform="translate(-6,-6) scale(1,1)"><g><path fill="none" stroke="none"></path><text fill="#000000" stroke="none" font-family="Arial" font-size="13px" font-style="normal" font-weight="normal" text-decoration="none" x="808.5" y="303.5">+power_ups</text></g></g><g transform="translate(-6,-6) scale(1,1)"><g><path fill="none" stroke="none"></path><text fill="#000000" stroke="none" font-family="Arial" font-size="13px" font-style="normal" font-weight="normal" text-decoration="none" x="862.5" y="317.5">0..1</text></g></g><g transform="translate(-6,-6) scale(1,1)"><rect fill="#ffffff" stroke="none" x="759.3313253012049" y="234" width="186" height="22"></rect></g><g transform="translate(-6,-6) scale(1,1)"><path fill="none" stroke="#000000" d="M 759.3313253012049 234 L 945.3313253012049 234 L 945.3313253012049 256 L 759.3313253012049 256 L 759.3313253012049 234 Z Z" stroke-miterlimit="10"></path></g><g transform="translate(-6,-6) scale(1,1)"><g><path fill="none" stroke="none"></path><text fill="#000000" stroke="none" font-family="Arial" font-size="13px" font-style="normal" font-weight="normal" text-decoration="none" x="764.3313253012049" y="251.5">+position: ColumnRowPosition</text></g></g></g></svg>