<svg version="1.1" xmlns="http://www.w3.org/2000/svg" xmlns:xlink="http://www.w3.org/1999/xlink" width="830" height="616"><defs></defs><g><g transform="translate(-6,-14) scale(1,1)"><rect fill="#C0C0C0" stroke="none" x="23" y="407" width="498" height="220" opacity="0.2"></rect></g><g transform="translate(-6,-14) scale(1,1)"><rect fill="#ffffff" stroke="none" x="16" y="400" width="498" height="220"></rect></g><g transform="translate(-6,-14) scale(1,1)"><path fill="none" stroke="#000000" d="M 16 400 L 514 400 L 514 620 L 16 620 L 16 400 Z Z" stroke-miterlimit="10"></path></g><g transform="translate(-6,-14) scale(1,1)"><path fill="none" stroke="#000000" d="M 16 425 L 514 425" stroke-miterlimit="10"></path></g><g transform="translate(-6,-14) scale(1,1)"><path fill="none" stroke="#000000" d="M 16 568 L 514 568" stroke-miterlimit="10"></path></g><g transform="translate(-6,-14) scale(1,1)"><g><path fill="none" stroke="none"></path><text fill="#000000" stroke="none" font-family="Arial" font-size="13px" font-style="normal" font-weight="bold" text-decoration="none" x="246.5" y="419.5">Player</text></g></g><g transform="translate(-6,-14) scale(1,1)"><g><path fill="none" stroke="none"></path><text fill="#000000" stroke="none" font-family="Arial" font-size="13px" font-style="normal" font-weight="normal" text-decoration="none" x="21" y="442.5">+direction_move: Set&lt;Direction&gt;</text></g></g><g transform="translate(-6,-14) scale(1,1)"><g><path fill="none" stroke="none"></path><text fill="#000000" stroke="none" font-family="Arial" font-size="13px" font-style="normal" font-weight="normal" text-decoration="none" x="21" y="457.5">+position: RowPosition | ColumnPosition</text></g></g><g transform="translate(-6,-14) scale(1,1)"><g><path fill="none" stroke="none"></path><text fill="#000000" stroke="none" font-family="Arial" font-size="13px" font-style="normal" font-weight="normal" text-decoration="none" x="21" y="472.5">+run_speed: number</text></g></g><g transform="translate(-6,-14) scale(1,1)"><g><path fill="none" stroke="none"></path><text fill="#000000" stroke="none" font-family="Arial" font-size="13px" font-style="normal" font-weight="normal" text-decoration="none" x="21" y="487.5">+tick_count_since_turn: number</text></g></g><g transform="translate(-6,-14) scale(1,1)"><g><path fill="none" stroke="none"></path><text fill="#000000" stroke="none" font-family="Arial" font-size="13px" font-style="normal" font-weight="normal" text-decoration="none" x="21" y="502.5">+life_count: Int</text></g></g><g transform="translate(-6,-14) scale(1,1)"><g><path fill="none" stroke="none"></path><text fill="#000000" stroke="none" font-family="Arial" font-size="13px" font-style="normal" font-weight="normal" text-decoration="none" x="21" y="517.5">+protection_countdown: number</text></g></g><g transform="translate(-6,-14) scale(1,1)"><g><path fill="none" stroke="none"></path><text fill="#000000" stroke="none" font-family="Arial" font-size="13px" font-style="normal" font-weight="normal" text-decoration="none" x="21" y="532.5">+bomb_strength: Int</text></g></g><g transform="translate(-6,-14) scale(1,1)"><g><path fill="none" stroke="none"></path><text fill="#000000" stroke="none" font-family="Arial" font-size="13px" font-style="normal" font-weight="normal" text-decoration="none" x="21" y="547.5">+bomb_capacity: Int</text></g></g><g transform="translate(-6,-14) scale(1,1)"><g><path fill="none" stroke="none"></path><text fill="#000000" stroke="none" font-family="Arial" font-size="13px" font-style="normal" font-weight="normal" text-decoration="none" x="21" y="562.5">+bomb_kick: boolean</text></g></g><g transform="translate(-6,-14) scale(1,1)"><g><path fill="none" stroke="none"></path><text fill="#000000" stroke="none" font-family="Arial" font-size="13px" font-style="normal" font-weight="normal" text-decoration="none" x="21" y="585.5">+user_command(command: Accelerate | Decelerate | PlantBomb)</text></g></g><g transform="translate(-6,-14) scale(1,1)"><g><path fill="none" stroke="none"></path><text fill="#000000" stroke="none" font-family="Arial" font-size="13px" font-style="normal" font-weight="normal" text-decoration="none" x="21" y="600.5">+update(event: Event, blocks: Map&lt;ColumnRowPosition;Block&gt;): Array&lt;Explosion&gt;</text></g></g><g transform="translate(-6,-14) scale(1,1)"><g><path fill="none" stroke="none"></path><text fill="#000000" stroke="none" font-family="Arial" font-size="13px" font-style="normal" font-weight="normal" text-decoration="none" x="21" y="615.5">+take_damage(explosions: Set&lt;Explosion&gt;)</text></g></g><g transform="translate(-6,-14) scale(1,1)"><rect fill="#C0C0C0" stroke="none" x="735" y="567" width="95" height="57" opacity="0.2"></rect></g><g transform="translate(-6,-14) scale(1,1)"><rect fill="#ffffff" stroke="none" x="728" y="560" width="95" height="57"></rect></g><g transform="translate(-6,-14) scale(1,1)"><path fill="none" stroke="#000000" d="M 728 560 L 823 560 L 823 617 L 728 617 L 728 560 Z Z" stroke-miterlimit="10"></path></g><g transform="translate(-6,-14) scale(1,1)"><path fill="none" stroke="#000000" d="M 728 585 L 823 585" stroke-miterlimit="10"></path></g><g transform="translate(-6,-14) scale(1,1)"><path fill="none" stroke="#000000" d="M 728 608 L 823 608" stroke-miterlimit="10"></path></g><g transform="translate(-6,-14) scale(1,1)"><g><path fill="none" stroke="none"></path><text fill="#000000" stroke="none" font-family="Arial" font-size="13px" font-style="normal" font-weight="bold" text-decoration="none" x="758.5" y="579.5">Bomb</text></g></g><g transform="translate(-6,-14) scale(1,1)"><g><path fill="none" stroke="none"></path><text fill="#000000" stroke="none" font-family="Arial" font-size="13px" font-style="normal" font-weight="normal" text-decoration="none" x="733" y="602.5">+fuse: number</text></g></g><g transform="translate(-6,-14) scale(1,1)"><rect fill="#C0C0C0" stroke="none" x="23" y="207" width="395" height="117" opacity="0.2"></rect></g><g transform="translate(-6,-14) scale(1,1)"><rect fill="#ffffff" stroke="none" x="16" y="200" width="395" height="117"></rect></g><g transform="translate(-6,-14) scale(1,1)"><path fill="none" stroke="#000000" d="M 16 200 L 411 200 L 411 317 L 16 317 L 16 200 Z Z" stroke-miterlimit="10"></path></g><g transform="translate(-6,-14) scale(1,1)"><path fill="none" stroke="#000000" d="M 16 225 L 411 225" stroke-miterlimit="10"></path></g><g transform="translate(-6,-14) scale(1,1)"><path fill="none" stroke="#000000" d="M 16 235 L 411 235" stroke-miterlimit="10"></path></g><g transform="translate(-6,-14) scale(1,1)"><g><path fill="none" stroke="none"></path><text fill="#000000" stroke="none" font-family="Arial" font-size="13px" font-style="normal" font-weight="bold" text-decoration="none" x="196" y="219.5">Game</text></g></g><g transform="translate(-6,-14) scale(1,1)"><g><path fill="none" stroke="none"></path><text fill="#000000" stroke="none" font-family="Arial" font-size="13px" font-style="normal" font-weight="normal" text-decoration="none" x="21" y="252.5">+update(event: Tick | UserCommandEvent)</text></g></g><g transform="translate(-6,-14) scale(1,1)"><g><path fill="none" stroke="none"></path><text fill="#000000" stroke="none" font-family="Arial" font-size="13px" font-style="normal" font-weight="normal" text-decoration="none" x="21" y="267.5">+addPlayer(): PlayerId | null</text></g></g><g transform="translate(-6,-14) scale(1,1)"><g><path fill="none" stroke="none"></path><text fill="#000000" stroke="none" font-family="Arial" font-size="13px" font-style="normal" font-weight="normal" text-decoration="none" x="21" y="282.5">+deletePlayer(player_id: PlayerId)</text></g></g><g transform="translate(-6,-14) scale(1,1)"><g><path fill="none" stroke="none"></path><text fill="#000000" stroke="none" font-family="Arial" font-size="13px" font-style="normal" font-weight="normal" text-decoration="none" x="21" y="297.5">+explode_bombs(explosion: Array&lt;Explosion&gt;): Array&lt;Explosion&gt;</text></g></g><g transform="translate(-6,-14) scale(1,1)"><g><path fill="none" stroke="none"></path><text fill="#000000" stroke="none" font-family="Arial" font-size="13px" font-style="normal" font-weight="normal" text-decoration="none" x="21" y="312.5">+explode_blocks(explosion: Explosion)</text></g></g><g transform="translate(-6,-14) scale(1,1)"><rect fill="#C0C0C0" stroke="none" x="135" y="31" width="177" height="100" opacity="0.2"></rect></g><g transform="translate(-6,-14) scale(1,1)"><rect fill="#ffffff" stroke="none" x="128" y="24" width="177" height="100"></rect></g><g transform="translate(-6,-14) scale(1,1)"><path fill="none" stroke="#000000" d="M 128 24 L 305 24 L 305 124 L 128 124 L 128 24 Z Z" stroke-miterlimit="10"></path></g><g transform="translate(-6,-14) scale(1,1)"><path fill="none" stroke="#000000" d="M 128 49 L 305 49" stroke-miterlimit="10"></path></g><g transform="translate(-6,-14) scale(1,1)"><path fill="none" stroke="#000000" d="M 128 102 L 305 102" stroke-miterlimit="10"></path></g><g transform="translate(-6,-14) scale(1,1)"><g><path fill="none" stroke="none"></path><text fill="#000000" stroke="none" font-family="Arial" font-size="13px" font-style="normal" font-weight="bold" text-decoration="none" x="188" y="43.5">Explosion</text></g></g><g transform="translate(-6,-14) scale(1,1)"><g><path fill="none" stroke="none"></path><text fill="#000000" stroke="none" font-family="Arial" font-size="13px" font-style="normal" font-weight="normal" text-decoration="none" x="133" y="66.5">+progress: number</text></g></g><g transform="translate(-6,-14) scale(1,1)"><g><path fill="none" stroke="none"></path><text fill="#000000" stroke="none" font-family="Arial" font-size="13px" font-style="normal" font-weight="normal" text-decoration="none" x="133" y="81.5">+radius: Int</text></g></g><g transform="translate(-6,-14) scale(1,1)"><g><path fill="none" stroke="none"></path><text fill="#000000" stroke="none" font-family="Arial" font-size="13px" font-style="normal" font-weight="normal" text-decoration="none" x="133" y="96.5">+center: ColumnRowPosition</text></g></g><g transform="translate(-6,-14) scale(1,1)"><g><path fill="none" stroke="none"></path><text fill="#000000" stroke="none" font-family="Arial" font-size="13px" font-style="normal" font-weight="normal" text-decoration="none" x="133" y="119.5">+update(event: Event)</text></g></g><g transform="translate(-6,-14) scale(1,1)"><rect fill="#C0C0C0" stroke="none" x="521" y="543.7662337662338" width="186" height="22" opacity="0.2"></rect></g><g transform="translate(-6,-14) scale(1,1)"><path fill="none" stroke="#000000" d="M 727 576 L 659 560" stroke-miterlimit="10"></path></g><g transform="translate(-6,-14) scale(1,1)"><path fill="#000000" stroke="none" d="M 669.8566673247471 558.2300354241486 L 659 560 L 667.9283770404596 566.4252691323705 L 680.4151777033387 565.038865341962"></path></g><g transform="translate(-6,-14) scale(1,1)"><path fill="none" stroke="#000000" d="M 669.8566673247471 558.2300354241486 L 659 560 L 667.9283770404596 566.4252691323705 L 680.4151777033387 565.038865341962 L 669.8566673247471 558.2300354241486" stroke-miterlimit="10"></path></g><g transform="translate(-6,-14) scale(1,1)"><path fill="none" stroke="#000000" d="M 716.1433326752529 577.7699645758514 L 727 576 L 718.0716229595404 569.5747308676295" stroke-miterlimit="10"></path></g><g transform="translate(-6,-14) scale(1,1)"><g><path fill="none" stroke="none"></path><text fill="#000000" stroke="none" font-family="Arial" font-size="13px" font-style="normal" font-weight="normal" text-decoration="none" x="673.5" y="594.5">+bombs</text></g></g><g transform="translate(-6,-14) scale(1,1)"><g><path fill="none" stroke="none"></path><text fill="#000000" stroke="none" font-family="Arial" font-size="13px" font-style="normal" font-weight="normal" text-decoration="none" x="706.5" y="569.5">*</text></g></g><g transform="translate(-6,-14) scale(1,1)"><rect fill="#ffffff" stroke="none" x="514" y="536.7662337662338" width="186" height="22"></rect></g><g transform="translate(-6,-14) scale(1,1)"><path fill="none" stroke="#000000" d="M 514 536.7662337662338 L 700 536.7662337662338 L 700 558.7662337662338 L 514 558.7662337662338 L 514 536.7662337662338 Z Z" stroke-miterlimit="10"></path></g><g transform="translate(-6,-14) scale(1,1)"><g><path fill="none" stroke="none"></path><text fill="#000000" stroke="none" font-family="Arial" font-size="13px" font-style="normal" font-weight="normal" text-decoration="none" x="519" y="554.2662337662338">+position: ColumnRowPosition</text></g></g><g transform="translate(-6,-14) scale(1,1)"><rect fill="#C0C0C0" stroke="none" x="199.13475177304966" y="324" width="64.99999999999997" height="22" opacity="0.2"></rect></g><g transform="translate(-6,-14) scale(1,1)"><path fill="none" stroke="#000000" d="M 240 399 L 227 340" stroke-miterlimit="10"></path></g><g transform="translate(-6,-14) scale(1,1)"><path fill="#000000" stroke="none" d="M 233.29768887059643 349.01882003862846 L 227 340 L 225.07586969858647 350.8304073138171 L 231.73390568280556 361.48464886811746"></path></g><g transform="translate(-6,-14) scale(1,1)"><path fill="none" stroke="#000000" d="M 233.29768887059643 349.01882003862846 L 227 340 L 225.07586969858647 350.8304073138171 L 231.73390568280556 361.48464886811746 L 233.29768887059643 349.01882003862846" stroke-miterlimit="10"></path></g><g transform="translate(-6,-14) scale(1,1)"><path fill="none" stroke="#000000" d="M 233.70231112940357 389.98117996137154 L 240 399 L 241.92413030141353 388.1695926861829" stroke-miterlimit="10"></path></g><g transform="translate(-6,-14) scale(1,1)"><g><path fill="none" stroke="none"></path><text fill="#000000" stroke="none" font-family="Arial" font-size="13px" font-style="normal" font-weight="normal" text-decoration="none" x="199.5" y="383.5">+player</text></g></g><g transform="translate(-6,-14) scale(1,1)"><g><path fill="none" stroke="none"></path><text fill="#000000" stroke="none" font-family="Arial" font-size="13px" font-style="normal" font-weight="normal" text-decoration="none" x="236.5" y="380.5">2..4</text></g></g><g transform="translate(-6,-14) scale(1,1)"><rect fill="#ffffff" stroke="none" x="192.13475177304966" y="317" width="64.99999999999997" height="22"></rect></g><g transform="translate(-6,-14) scale(1,1)"><path fill="none" stroke="#000000" d="M 192.13475177304966 317 L 257.13475177304963 317 L 257.13475177304963 339 L 192.13475177304966 339 L 192.13475177304966 317 Z Z" stroke-miterlimit="10"></path></g><g transform="translate(-6,-14) scale(1,1)"><g><path fill="none" stroke="none"></path><text fill="#000000" stroke="none" font-family="Arial" font-size="13px" font-style="normal" font-weight="normal" text-decoration="none" x="197.13475177304966" y="334.5">+PlayerId</text></g></g><g transform="translate(-6,-14) scale(1,1)"><path fill="none" stroke="#000000" d="M 215 125 L 214 199" stroke-miterlimit="10"></path></g><g transform="translate(-6,-14) scale(1,1)"><path fill="#000000" stroke="none" d="M 209.92818745815435 188.78137276225087 L 214 199 L 218.34645435417048 188.89513312571054 L 214.2972701555346 177.00200849044103"></path></g><g transform="translate(-6,-14) scale(1,1)"><path fill="none" stroke="#000000" d="M 209.92818745815435 188.78137276225087 L 214 199 L 218.34645435417048 188.89513312571054 L 214.2972701555346 177.00200849044103 L 209.92818745815435 188.78137276225087" stroke-miterlimit="10"></path></g><g transform="translate(-6,-14) scale(1,1)"><path fill="none" stroke="#000000" d="M 219.07181254184565 135.21862723774913 L 215 125 L 210.65354564582952 135.10486687428946" stroke-miterlimit="10"></path></g><g transform="translate(-6,-14) scale(1,1)"><g><path fill="none" stroke="none"></path><text fill="#000000" stroke="none" font-family="Arial" font-size="13px" font-style="normal" font-weight="normal" text-decoration="none" x="193.5" y="157.5">+explosions</text></g></g><g transform="translate(-6,-14) scale(1,1)"><g><path fill="none" stroke="none"></path><text fill="#000000" stroke="none" font-family="Arial" font-size="13px" font-style="normal" font-weight="normal" text-decoration="none" x="199.5" y="152.5">*</text></g></g><g transform="translate(-6,-14) scale(1,1)"><rect fill="#C0C0C0" stroke="none" x="655" y="135" width="73" height="57" opacity="0.2"></rect></g><g transform="translate(-6,-14) scale(1,1)"><rect fill="#ffffff" stroke="none" x="648" y="128" width="73" height="57"></rect></g><g transform="translate(-6,-14) scale(1,1)"><path fill="none" stroke="#000000" d="M 648 128 L 721 128 L 721 185 L 648 185 L 648 128 Z Z" stroke-miterlimit="10"></path></g><g transform="translate(-6,-14) scale(1,1)"><path fill="none" stroke="#000000" d="M 648 166 L 721 166" stroke-miterlimit="10"></path></g><g transform="translate(-6,-14) scale(1,1)"><path fill="none" stroke="#000000" d="M 648 176 L 721 176" stroke-miterlimit="10"></path></g><g transform="translate(-6,-14) scale(1,1)"><g><path fill="none" stroke="none"></path><text fill="#000000" stroke="none" font-family="Arial" font-size="13px" font-style="normal" font-weight="normal" text-decoration="none" x="652.5" y="145.5">«interface»</text></g></g><g transform="translate(-6,-14) scale(1,1)"><g><path fill="none" stroke="none"></path><text fill="#000000" stroke="none" font-family="Arial" font-size="13px" font-style="normal" font-weight="bold" text-decoration="none" x="668" y="160.5">Block</text></g></g><g transform="translate(-6,-14) scale(1,1)"><rect fill="#C0C0C0" stroke="none" x="418" y="210.6152073732719" width="186" height="22" opacity="0.2"></rect></g><g transform="translate(-6,-14) scale(1,1)"><path fill="none" stroke="#000000" d="M 647 168 L 539 203" stroke-miterlimit="10"></path></g><g transform="translate(-6,-14) scale(1,1)"><path fill="#000000" stroke="none" d="M 547.3699287243269 195.86247289674589 L 539 203 L 549.9654271746334 203.87143954340587 L 559.9284384149122 196.21763569887105"></path></g><g transform="translate(-6,-14) scale(1,1)"><path fill="none" stroke="#000000" d="M 547.3699287243269 195.86247289674589 L 539 203 L 549.9654271746334 203.87143954340587 L 559.9284384149122 196.21763569887105 L 547.3699287243269 195.86247289674589" stroke-miterlimit="10"></path></g><g transform="translate(-6,-14) scale(1,1)"><path fill="none" stroke="#000000" d="M 638.6300712756731 175.13752710325411 L 647 168 L 636.0345728253666 167.12856045659413" stroke-miterlimit="10"></path></g><g transform="translate(-6,-14) scale(1,1)"><g><path fill="none" stroke="none"></path><text fill="#000000" stroke="none" font-family="Arial" font-size="13px" font-style="normal" font-weight="normal" text-decoration="none" x="603.5" y="192.5">+blocks</text></g></g><g transform="translate(-6,-14) scale(1,1)"><g><path fill="none" stroke="none"></path><text fill="#000000" stroke="none" font-family="Arial" font-size="13px" font-style="normal" font-weight="normal" text-decoration="none" x="610.5" y="165.5">0..1</text></g></g><g transform="translate(-6,-14) scale(1,1)"><rect fill="#ffffff" stroke="none" x="411" y="203.6152073732719" width="186" height="22"></rect></g><g transform="translate(-6,-14) scale(1,1)"><path fill="none" stroke="#000000" d="M 411 203.6152073732719 L 597 203.6152073732719 L 597 225.6152073732719 L 411 225.6152073732719 L 411 203.6152073732719 Z Z" stroke-miterlimit="10"></path></g><g transform="translate(-6,-14) scale(1,1)"><g><path fill="none" stroke="none"></path><text fill="#000000" stroke="none" font-family="Arial" font-size="13px" font-style="normal" font-weight="normal" text-decoration="none" x="416" y="221.1152073732719">+position: ColumnRowPosition</text></g></g><g transform="translate(-6,-14) scale(1,1)"><rect fill="#C0C0C0" stroke="none" x="703" y="231" width="63" height="44" opacity="0.2"></rect></g><g transform="translate(-6,-14) scale(1,1)"><rect fill="#ffffff" stroke="none" x="696" y="224" width="63" height="44"></rect></g><g transform="translate(-6,-14) scale(1,1)"><path fill="none" stroke="#000000" d="M 696 224 L 759 224 L 759 268 L 696 268 L 696 224 Z Z" stroke-miterlimit="10"></path></g><g transform="translate(-6,-14) scale(1,1)"><path fill="none" stroke="#000000" d="M 696 249 L 759 249" stroke-miterlimit="10"></path></g><g transform="translate(-6,-14) scale(1,1)"><path fill="none" stroke="#000000" d="M 696 259 L 759 259" stroke-miterlimit="10"></path></g><g transform="translate(-6,-14) scale(1,1)"><g><path fill="none" stroke="none"></path><text fill="#000000" stroke="none" font-family="Arial" font-size="13px" font-style="normal" font-weight="bold" text-decoration="none" x="701.5" y="243.5">Obstacle</text></g></g><g transform="translate(-6,-14) scale(1,1)"><rect fill="#C0C0C0" stroke="none" x="623" y="231" width="73" height="57" opacity="0.2"></rect></g><g transform="translate(-6,-14) scale(1,1)"><rect fill="#ffffff" stroke="none" x="616" y="224" width="73" height="57"></rect></g><g transform="translate(-6,-14) scale(1,1)"><path fill="none" stroke="#000000" d="M 616 224 L 689 224 L 689 281 L 616 281 L 616 224 Z Z" stroke-miterlimit="10"></path></g><g transform="translate(-6,-14) scale(1,1)"><path fill="none" stroke="#000000" d="M 616 262 L 689 262" stroke-miterlimit="10"></path></g><g transform="translate(-6,-14) scale(1,1)"><path fill="none" stroke="#000000" d="M 616 272 L 689 272" stroke-miterlimit="10"></path></g><g transform="translate(-6,-14) scale(1,1)"><g><path fill="none" stroke="none"></path><text fill="#000000" stroke="none" font-family="Arial" font-size="13px" font-style="normal" font-weight="normal" text-decoration="none" x="620.5" y="241.5">«interface»</text></g></g><g transform="translate(-6,-14) scale(1,1)"><g><path fill="none" stroke="none"></path><text fill="#000000" stroke="none" font-family="Arial" font-size="13px" font-style="normal" font-weight="bold" text-decoration="none" x="626.5" y="256.5">PowerUp</text></g></g><g transform="translate(-6,-14) scale(1,1)"><path fill="none" stroke="#000000" d="M 716 223 L 698 186" stroke-dasharray="3" stroke-miterlimit="10"></path></g><g transform="translate(-6,-14) scale(1,1)"><path fill="#FFFFFF" stroke="none" d="M 714.4623358698607 200.59422823269176 L 698 186 L 699.3209515782286 207.96030707726956"></path></g><g transform="translate(-6,-14) scale(1,1)"><path fill="none" stroke="#000000" d="M 714.4623358698607 200.59422823269176 L 698 186 L 699.3209515782286 207.96030707726956 L 714.4623358698607 200.59422823269176" stroke-miterlimit="10"></path></g><g transform="translate(-6,-14) scale(1,1)"><path fill="none" stroke="#000000" d="M 662 223 L 674 186" stroke-dasharray="3" stroke-miterlimit="10"></path></g><g transform="translate(-6,-14) scale(1,1)"><path fill="#FFFFFF" stroke="none" d="M 675.7379128161768 207.9312484606638 L 674 186 L 659.7211554310072 202.73662444385204"></path></g><g transform="translate(-6,-14) scale(1,1)"><path fill="none" stroke="#000000" d="M 675.7379128161768 207.9312484606638 L 674 186 L 659.7211554310072 202.73662444385204 L 675.7379128161768 207.9312484606638" stroke-miterlimit="10"></path></g><g transform="translate(-6,-14) scale(1,1)"><rect fill="#C0C0C0" stroke="none" x="495" y="319" width="73" height="44" opacity="0.2"></rect></g><g transform="translate(-6,-14) scale(1,1)"><rect fill="#ffffff" stroke="none" x="488" y="312" width="73" height="44"></rect></g><g transform="translate(-6,-14) scale(1,1)"><path fill="none" stroke="#000000" d="M 488 312 L 561 312 L 561 356 L 488 356 L 488 312 Z Z" stroke-miterlimit="10"></path></g><g transform="translate(-6,-14) scale(1,1)"><path fill="none" stroke="#000000" d="M 488 337 L 561 337" stroke-miterlimit="10"></path></g><g transform="translate(-6,-14) scale(1,1)"><path fill="none" stroke="#000000" d="M 488 347 L 561 347" stroke-miterlimit="10"></path></g><g transform="translate(-6,-14) scale(1,1)"><g><path fill="none" stroke="none"></path><text fill="#000000" stroke="none" font-family="Arial" font-size="13px" font-style="normal" font-weight="bold" text-decoration="none" x="494.5" y="331.5">RunSpeed</text></g></g><g transform="translate(-6,-14) scale(1,1)"><rect fill="#C0C0C0" stroke="none" x="575" y="319" width="99" height="44" opacity="0.2"></rect></g><g transform="translate(-6,-14) scale(1,1)"><rect fill="#ffffff" stroke="none" x="568" y="312" width="99" height="44"></rect></g><g transform="translate(-6,-14) scale(1,1)"><path fill="none" stroke="#000000" d="M 568 312 L 667 312 L 667 356 L 568 356 L 568 312 Z Z" stroke-miterlimit="10"></path></g><g transform="translate(-6,-14) scale(1,1)"><path fill="none" stroke="#000000" d="M 568 337 L 667 337" stroke-miterlimit="10"></path></g><g transform="translate(-6,-14) scale(1,1)"><path fill="none" stroke="#000000" d="M 568 347 L 667 347" stroke-miterlimit="10"></path></g><g transform="translate(-6,-14) scale(1,1)"><g><path fill="none" stroke="none"></path><text fill="#000000" stroke="none" font-family="Arial" font-size="13px" font-style="normal" font-weight="bold" text-decoration="none" x="576" y="331.5">BombStrength</text></g></g><g transform="translate(-6,-14) scale(1,1)"><rect fill="#C0C0C0" stroke="none" x="679" y="319" width="99" height="44" opacity="0.2"></rect></g><g transform="translate(-6,-14) scale(1,1)"><rect fill="#ffffff" stroke="none" x="672" y="312" width="99" height="44"></rect></g><g transform="translate(-6,-14) scale(1,1)"><path fill="none" stroke="#000000" d="M 672 312 L 771 312 L 771 356 L 672 356 L 672 312 Z Z" stroke-miterlimit="10"></path></g><g transform="translate(-6,-14) scale(1,1)"><path fill="none" stroke="#000000" d="M 672 337 L 771 337" stroke-miterlimit="10"></path></g><g transform="translate(-6,-14) scale(1,1)"><path fill="none" stroke="#000000" d="M 672 347 L 771 347" stroke-miterlimit="10"></path></g><g transform="translate(-6,-14) scale(1,1)"><g><path fill="none" stroke="none"></path><text fill="#000000" stroke="none" font-family="Arial" font-size="13px" font-style="normal" font-weight="bold" text-decoration="none" x="679" y="331.5">BombCapacity</text></g></g><g transform="translate(-6,-14) scale(1,1)"><rect fill="#C0C0C0" stroke="none" x="783" y="319" width="50" height="44" opacity="0.2"></rect></g><g transform="translate(-6,-14) scale(1,1)"><rect fill="#ffffff" stroke="none" x="776" y="312" width="50" height="44"></rect></g><g transform="translate(-6,-14) scale(1,1)"><path fill="none" stroke="#000000" d="M 776 312 L 826 312 L 826 356 L 776 356 L 776 312 Z Z" stroke-miterlimit="10"></path></g><g transform="translate(-6,-14) scale(1,1)"><path fill="none" stroke="#000000" d="M 776 337 L 826 337" stroke-miterlimit="10"></path></g><g transform="translate(-6,-14) scale(1,1)"><path fill="none" stroke="#000000" d="M 776 347 L 826 347" stroke-miterlimit="10"></path></g><g transform="translate(-6,-14) scale(1,1)"><g><path fill="none" stroke="none"></path><text fill="#000000" stroke="none" font-family="Arial" font-size="13px" font-style="normal" font-weight="bold" text-decoration="none" x="788" y="331.5">Kick</text></g></g><g transform="translate(-6,-14) scale(1,1)"><path fill="none" stroke="#000000" d="M 560 311 L 615 276" stroke-dasharray="3" stroke-miterlimit="10"></path></g><g transform="translate(-6,-14) scale(1,1)"><path fill="#FFFFFF" stroke="none" d="M 602.3722590548721 294.01499815772235 L 615 276 L 593.3323113862444 279.8093661070217"></path></g><g transform="translate(-6,-14) scale(1,1)"><path fill="none" stroke="#000000" d="M 602.3722590548721 294.01499815772235 L 615 276 L 593.3323113862444 279.8093661070217 L 602.3722590548721 294.01499815772235" stroke-miterlimit="10"></path></g><g transform="translate(-6,-14) scale(1,1)"><path fill="none" stroke="#000000" d="M 627 311 L 639 282" stroke-dasharray="3" stroke-miterlimit="10"></path></g><g transform="translate(-6,-14) scale(1,1)"><path fill="#FFFFFF" stroke="none" d="M 639.0078966244611 303.99999858280273 L 639 282 L 623.4492355727107 297.56193194069914"></path></g><g transform="translate(-6,-14) scale(1,1)"><path fill="none" stroke="#000000" d="M 639.0078966244611 303.99999858280273 L 639 282 L 623.4492355727107 297.56193194069914 L 639.0078966244611 303.99999858280273" stroke-miterlimit="10"></path></g><g transform="translate(-6,-14) scale(1,1)"><path fill="none" stroke="#000000" d="M 702 311 L 677 282" stroke-dasharray="3" stroke-miterlimit="10"></path></g><g transform="translate(-6,-14) scale(1,1)"><path fill="#FFFFFF" stroke="none" d="M 696.647887525386 291.89750048192894 L 677 282 L 683.8945647976219 302.89174421276005"></path></g><g transform="translate(-6,-14) scale(1,1)"><path fill="none" stroke="#000000" d="M 696.647887525386 291.89750048192894 L 677 282 L 683.8945647976219 302.89174421276005 L 696.647887525386 291.89750048192894" stroke-miterlimit="10"></path></g><g transform="translate(-6,-14) scale(1,1)"><path fill="none" stroke="#000000" d="M 775 320 L 690 273" stroke-dasharray="3" stroke-miterlimit="10"></path></g><g transform="translate(-6,-14) scale(1,1)"><path fill="#FFFFFF" stroke="none" d="M 711.8611763072748 275.46758393215856 L 690 273 L 703.7133406800124 290.203031343165"></path></g><g transform="translate(-6,-14) scale(1,1)"><path fill="none" stroke="#000000" d="M 711.8611763072748 275.46758393215856 L 690 273 L 703.7133406800124 290.203031343165 L 711.8611763072748 275.46758393215856" stroke-miterlimit="10"></path></g><g transform="translate(-6,-14) scale(1,1)"><rect fill="#C0C0C0" stroke="none" x="639" y="415" width="137" height="72" opacity="0.2"></rect></g><g transform="translate(-6,-14) scale(1,1)"><rect fill="#ffffff" stroke="none" x="632" y="408" width="137" height="72"></rect></g><g transform="translate(-6,-14) scale(1,1)"><path fill="none" stroke="#000000" d="M 632 408 L 769 408 L 769 480 L 632 480 L 632 408 Z Z" stroke-miterlimit="10"></path></g><g transform="translate(-6,-14) scale(1,1)"><path fill="none" stroke="#000000" d="M 632 433 L 769 433" stroke-miterlimit="10"></path></g><g transform="translate(-6,-14) scale(1,1)"><path fill="none" stroke="#000000" d="M 632 471 L 769 471" stroke-miterlimit="10"></path></g><g transform="translate(-6,-14) scale(1,1)"><g><path fill="none" stroke="none"></path><text fill="#000000" stroke="none" font-family="Arial" font-size="13px" font-style="normal" font-weight="bold" text-decoration="none" x="642.5" y="427.5">ColumnRowPosition</text></g></g><g transform="translate(-6,-14) scale(1,1)"><g><path fill="none" stroke="none"></path><text fill="#000000" stroke="none" font-family="Arial" font-size="13px" font-style="normal" font-weight="normal" text-decoration="none" x="637" y="450.5">+column: Int</text></g></g><g transform="translate(-6,-14) scale(1,1)"><g><path fill="none" stroke="none"></path><text fill="#000000" stroke="none" font-family="Arial" font-size="13px" font-style="normal" font-weight="normal" text-decoration="none" x="637" y="465.5">+row: Int</text></g></g><g transform="translate(-6,-14) scale(1,1)"><rect fill="#C0C0C0" stroke="none" x="383" y="31" width="292" height="72" opacity="0.2"></rect></g><g transform="translate(-6,-14) scale(1,1)"><rect fill="#ffffff" stroke="none" x="376" y="24" width="292" height="72"></rect></g><g transform="translate(-6,-14) scale(1,1)"><path fill="none" stroke="#000000" d="M 376 24 L 668 24 L 668 96 L 376 96 L 376 24 Z Z" stroke-miterlimit="10"></path></g><g transform="translate(-6,-14) scale(1,1)"><path fill="none" stroke="#000000" d="M 376 49 L 668 49" stroke-miterlimit="10"></path></g><g transform="translate(-6,-14) scale(1,1)"><path fill="none" stroke="#000000" d="M 376 87 L 668 87" stroke-miterlimit="10"></path></g><g transform="translate(-6,-14) scale(1,1)"><g><path fill="none" stroke="none"></path><text fill="#000000" stroke="none" font-family="Arial" font-size="13px" font-style="normal" font-weight="bold" text-decoration="none" x="462" y="43.5">UserCommandEvent</text></g></g><g transform="translate(-6,-14) scale(1,1)"><g><path fill="none" stroke="none"></path><text fill="#000000" stroke="none" font-family="Arial" font-size="13px" font-style="normal" font-weight="normal" text-decoration="none" x="381" y="66.5">+player_id: PlayerId</text></g></g><g transform="translate(-6,-14) scale(1,1)"><g><path fill="none" stroke="none"></path><text fill="#000000" stroke="none" font-family="Arial" font-size="13px" font-style="normal" font-weight="normal" text-decoration="none" x="381" y="81.5">+command: Accelerate | Decelerate | PlantBomb</text></g></g></g></svg>