<svg version="1.1" xmlns="http://www.w3.org/2000/svg" xmlns:xlink="http://www.w3.org/1999/xlink" width="1019" height="561"><defs></defs><g><g transform="translate(-6,-14) scale(1,1)"><rect fill="#C0C0C0" stroke="none" x="31" y="367" width="692" height="205" opacity="0.2"></rect></g><g transform="translate(-6,-14) scale(1,1)"><rect fill="#ffffff" stroke="none" x="24" y="360" width="692" height="205"></rect></g><g transform="translate(-6,-14) scale(1,1)"><path fill="none" stroke="#000000" d="M 24 360 L 716 360 L 716 565 L 24 565 L 24 360 Z Z" stroke-miterlimit="10"></path></g><g transform="translate(-6,-14) scale(1,1)"><path fill="none" stroke="#000000" d="M 24 385 L 716 385" stroke-miterlimit="10"></path></g><g transform="translate(-6,-14) scale(1,1)"><path fill="none" stroke="#000000" d="M 24 498 L 716 498" stroke-miterlimit="10"></path></g><g transform="translate(-6,-14) scale(1,1)"><g><path fill="none" stroke="none"></path><text fill="#000000" stroke="none" font-family="Arial" font-size="13px" font-style="normal" font-weight="bold" text-decoration="none" x="351.5" y="379.5">Player</text></g></g><g transform="translate(-6,-14) scale(1,1)"><g><path fill="none" stroke="none"></path><text fill="#000000" stroke="none" font-family="Arial" font-size="13px" font-style="normal" font-weight="normal" text-decoration="none" x="29" y="402.5">+life_count: Integer</text></g></g><g transform="translate(-6,-14) scale(1,1)"><g><path fill="none" stroke="none"></path><text fill="#000000" stroke="none" font-family="Arial" font-size="13px" font-style="normal" font-weight="normal" text-decoration="none" x="29" y="417.5">+protection_countdown: Number</text></g></g><g transform="translate(-6,-14) scale(1,1)"><g><path fill="none" stroke="none"></path><text fill="#000000" stroke="none" font-family="Arial" font-size="13px" font-style="normal" font-weight="normal" text-decoration="none" x="29" y="432.5">+run_speed: Number</text></g></g><g transform="translate(-6,-14) scale(1,1)"><g><path fill="none" stroke="none"></path><text fill="#000000" stroke="none" font-family="Arial" font-size="13px" font-style="normal" font-weight="normal" text-decoration="none" x="29" y="447.5">+bomb_strength: Integer</text></g></g><g transform="translate(-6,-14) scale(1,1)"><g><path fill="none" stroke="none"></path><text fill="#000000" stroke="none" font-family="Arial" font-size="13px" font-style="normal" font-weight="normal" text-decoration="none" x="29" y="462.5">+bomb_capacity: Integer</text></g></g><g transform="translate(-6,-14) scale(1,1)"><g><path fill="none" stroke="none"></path><text fill="#000000" stroke="none" font-family="Arial" font-size="13px" font-style="normal" font-weight="normal" text-decoration="none" x="29" y="477.5">+bomb_kick: Boolean</text></g></g><g transform="translate(-6,-14) scale(1,1)"><g><path fill="none" stroke="none"></path><text fill="#000000" stroke="none" font-family="Arial" font-size="13px" font-style="normal" font-weight="normal" text-decoration="none" x="29" y="492.5">+position: Position</text></g></g><g transform="translate(-6,-14) scale(1,1)"><g><path fill="none" stroke="none"></path><text fill="#000000" stroke="none" font-family="Arial" font-size="13px" font-style="normal" font-weight="normal" text-decoration="none" x="29" y="515.5">+plant_bomb()</text></g></g><g transform="translate(-6,-14) scale(1,1)"><g><path fill="none" stroke="none"></path><text fill="#000000" stroke="none" font-family="Arial" font-size="13px" font-style="normal" font-weight="normal" text-decoration="none" x="29" y="530.5">+take_damage(explosions: Set&lt;Explosion&gt;)</text></g></g><g transform="translate(-6,-14) scale(1,1)"><g><path fill="none" stroke="none"></path><text fill="#000000" stroke="none" font-family="Arial" font-size="13px" font-style="normal" font-weight="normal" text-decoration="none" x="29" y="545.5">+update(event: Event, keys_pressed: Array&lt;String&gt;, blocks: Map&lt;Tuple&lt;Integer;Integer&gt;;Block&gt;): Array&lt;Explosion&gt;</text></g></g><g transform="translate(-6,-14) scale(1,1)"><g><path fill="none" stroke="none"></path><text fill="#000000" stroke="none" font-family="Arial" font-size="13px" font-style="normal" font-weight="normal" text-decoration="none" x="29" y="560.5">+draw()</text></g></g><g transform="translate(-6,-14) scale(1,1)"><rect fill="#C0C0C0" stroke="none" x="911" y="415" width="107" height="100" opacity="0.2"></rect></g><g transform="translate(-6,-14) scale(1,1)"><rect fill="#ffffff" stroke="none" x="904" y="408" width="107" height="100"></rect></g><g transform="translate(-6,-14) scale(1,1)"><path fill="none" stroke="#000000" d="M 904 408 L 1011 408 L 1011 508 L 904 508 L 904 408 Z Z" stroke-miterlimit="10"></path></g><g transform="translate(-6,-14) scale(1,1)"><path fill="none" stroke="#000000" d="M 904 433 L 1011 433" stroke-miterlimit="10"></path></g><g transform="translate(-6,-14) scale(1,1)"><path fill="none" stroke="#000000" d="M 904 486 L 1011 486" stroke-miterlimit="10"></path></g><g transform="translate(-6,-14) scale(1,1)"><g><path fill="none" stroke="none"></path><text fill="#000000" stroke="none" font-family="Arial" font-size="13px" font-style="normal" font-weight="bold" text-decoration="none" x="940.5" y="427.5">Bomb</text></g></g><g transform="translate(-6,-14) scale(1,1)"><g><path fill="none" stroke="none"></path><text fill="#000000" stroke="none" font-family="Arial" font-size="13px" font-style="normal" font-weight="normal" text-decoration="none" x="909" y="450.5">+fuse: Number</text></g></g><g transform="translate(-6,-14) scale(1,1)"><g><path fill="none" stroke="none"></path><text fill="#000000" stroke="none" font-family="Arial" font-size="13px" font-style="normal" font-weight="normal" text-decoration="none" x="909" y="465.5">+row: Integer</text></g></g><g transform="translate(-6,-14) scale(1,1)"><g><path fill="none" stroke="none"></path><text fill="#000000" stroke="none" font-family="Arial" font-size="13px" font-style="normal" font-weight="normal" text-decoration="none" x="909" y="480.5">+column: Integer</text></g></g><g transform="translate(-6,-14) scale(1,1)"><g><path fill="none" stroke="none"></path><text fill="#000000" stroke="none" font-family="Arial" font-size="13px" font-style="normal" font-weight="normal" text-decoration="none" x="909" y="503.5">+draw()</text></g></g><g transform="translate(-6,-14) scale(1,1)"><rect fill="#C0C0C0" stroke="none" x="23" y="207" width="395" height="102" opacity="0.2"></rect></g><g transform="translate(-6,-14) scale(1,1)"><rect fill="#ffffff" stroke="none" x="16" y="200" width="395" height="102"></rect></g><g transform="translate(-6,-14) scale(1,1)"><path fill="none" stroke="#000000" d="M 16 200 L 411 200 L 411 302 L 16 302 L 16 200 Z Z" stroke-miterlimit="10"></path></g><g transform="translate(-6,-14) scale(1,1)"><path fill="none" stroke="#000000" d="M 16 225 L 411 225" stroke-miterlimit="10"></path></g><g transform="translate(-6,-14) scale(1,1)"><path fill="none" stroke="#000000" d="M 16 235 L 411 235" stroke-miterlimit="10"></path></g><g transform="translate(-6,-14) scale(1,1)"><g><path fill="none" stroke="none"></path><text fill="#000000" stroke="none" font-family="Arial" font-size="13px" font-style="normal" font-weight="bold" text-decoration="none" x="196" y="219.5">Game</text></g></g><g transform="translate(-6,-14) scale(1,1)"><g><path fill="none" stroke="none"></path><text fill="#000000" stroke="none" font-family="Arial" font-size="13px" font-style="normal" font-weight="normal" text-decoration="none" x="21" y="252.5">+explode_bombs(explosion: Array&lt;Explosion&gt;): Array&lt;Explosion&gt;</text></g></g><g transform="translate(-6,-14) scale(1,1)"><g><path fill="none" stroke="none"></path><text fill="#000000" stroke="none" font-family="Arial" font-size="13px" font-style="normal" font-weight="normal" text-decoration="none" x="21" y="267.5">+explode_blocks(explosion: Explosion)</text></g></g><g transform="translate(-6,-14) scale(1,1)"><g><path fill="none" stroke="none"></path><text fill="#000000" stroke="none" font-family="Arial" font-size="13px" font-style="normal" font-weight="normal" text-decoration="none" x="21" y="282.5">+update(event: Event, keys_pressed: Array&lt;String&gt;)</text></g></g><g transform="translate(-6,-14) scale(1,1)"><g><path fill="none" stroke="none"></path><text fill="#000000" stroke="none" font-family="Arial" font-size="13px" font-style="normal" font-weight="normal" text-decoration="none" x="21" y="297.5">+draw()</text></g></g><g transform="translate(-6,-14) scale(1,1)"><rect fill="#C0C0C0" stroke="none" x="135" y="31" width="138" height="100" opacity="0.2"></rect></g><g transform="translate(-6,-14) scale(1,1)"><rect fill="#ffffff" stroke="none" x="128" y="24" width="138" height="100"></rect></g><g transform="translate(-6,-14) scale(1,1)"><path fill="none" stroke="#000000" d="M 128 24 L 266 24 L 266 124 L 128 124 L 128 24 Z Z" stroke-miterlimit="10"></path></g><g transform="translate(-6,-14) scale(1,1)"><path fill="none" stroke="#000000" d="M 128 49 L 266 49" stroke-miterlimit="10"></path></g><g transform="translate(-6,-14) scale(1,1)"><path fill="none" stroke="#000000" d="M 128 87 L 266 87" stroke-miterlimit="10"></path></g><g transform="translate(-6,-14) scale(1,1)"><g><path fill="none" stroke="none"></path><text fill="#000000" stroke="none" font-family="Arial" font-size="13px" font-style="normal" font-weight="bold" text-decoration="none" x="168.5" y="43.5">Explosion</text></g></g><g transform="translate(-6,-14) scale(1,1)"><g><path fill="none" stroke="none"></path><text fill="#000000" stroke="none" font-family="Arial" font-size="13px" font-style="normal" font-weight="normal" text-decoration="none" x="133" y="66.5">+progress: Number</text></g></g><g transform="translate(-6,-14) scale(1,1)"><g><path fill="none" stroke="none"></path><text fill="#000000" stroke="none" font-family="Arial" font-size="13px" font-style="normal" font-weight="normal" text-decoration="none" x="133" y="81.5">+strength: Integer</text></g></g><g transform="translate(-6,-14) scale(1,1)"><g><path fill="none" stroke="none"></path><text fill="#000000" stroke="none" font-family="Arial" font-size="13px" font-style="normal" font-weight="normal" text-decoration="none" x="133" y="104.5">+update(event: Event)</text></g></g><g transform="translate(-6,-14) scale(1,1)"><g><path fill="none" stroke="none"></path><text fill="#000000" stroke="none" font-family="Arial" font-size="13px" font-style="normal" font-weight="normal" text-decoration="none" x="133" y="119.5">+draw()</text></g></g><g transform="translate(-6,-14) scale(1,1)"><rect fill="#C0C0C0" stroke="none" x="723" y="447.4033771106942" width="107" height="37" opacity="0.2"></rect></g><g transform="translate(-6,-14) scale(1,1)"><path fill="none" stroke="#000000" d="M 903 458 L 824 458" stroke-miterlimit="10"></path></g><g transform="translate(-6,-14) scale(1,1)"><path fill="#000000" stroke="none" d="M 834.1626748576241 453.790482243984 L 824 458 L 834.1626748576241 462.209517756016 L 846 458"></path></g><g transform="translate(-6,-14) scale(1,1)"><path fill="none" stroke="#000000" d="M 834.1626748576241 453.790482243984 L 824 458 L 834.1626748576241 462.209517756016 L 846 458 L 834.1626748576241 453.790482243984" stroke-miterlimit="10"></path></g><g transform="translate(-6,-14) scale(1,1)"><path fill="none" stroke="#000000" d="M 892.8373251423759 462.209517756016 L 903 458 L 892.8373251423758 453.790482243984" stroke-miterlimit="10"></path></g><g transform="translate(-6,-14) scale(1,1)"><g><path fill="none" stroke="none"></path><text fill="#000000" stroke="none" font-family="Arial" font-size="13px" font-style="normal" font-weight="normal" text-decoration="none" x="853.5" y="478.5">+bombs</text></g></g><g transform="translate(-6,-14) scale(1,1)"><g><path fill="none" stroke="none"></path><text fill="#000000" stroke="none" font-family="Arial" font-size="13px" font-style="normal" font-weight="normal" text-decoration="none" x="878.5" y="451.5">*</text></g></g><g transform="translate(-6,-14) scale(1,1)"><rect fill="#ffffff" stroke="none" x="716" y="440.4033771106942" width="107" height="37"></rect></g><g transform="translate(-6,-14) scale(1,1)"><path fill="none" stroke="#000000" d="M 716 440.4033771106942 L 823 440.4033771106942 L 823 477.4033771106942 L 716 477.4033771106942 L 716 440.4033771106942 Z Z" stroke-miterlimit="10"></path></g><g transform="translate(-6,-14) scale(1,1)"><g><path fill="none" stroke="none"></path><text fill="#000000" stroke="none" font-family="Arial" font-size="13px" font-style="normal" font-weight="normal" text-decoration="none" x="721" y="457.9033771106942">+row: Integer</text></g></g><g transform="translate(-6,-14) scale(1,1)"><g><path fill="none" stroke="none"></path><text fill="#000000" stroke="none" font-family="Arial" font-size="13px" font-style="normal" font-weight="normal" text-decoration="none" x="721" y="472.9033771106942">+column: Integer</text></g></g><g transform="translate(-6,-14) scale(1,1)"><path fill="none" stroke="#000000" d="M 293 359 L 252 303" stroke-miterlimit="10"></path></g><g transform="translate(-6,-14) scale(1,1)"><path fill="#000000" stroke="none" d="M 261.3999902311932 308.7131588157054 L 252 303 L 254.606983494983 313.686610176145 L 264.9962547103288 320.750982043376"></path></g><g transform="translate(-6,-14) scale(1,1)"><path fill="none" stroke="#000000" d="M 261.3999902311932 308.7131588157054 L 252 303 L 254.606983494983 313.686610176145 L 264.9962547103288 320.750982043376 L 261.3999902311932 308.7131588157054" stroke-miterlimit="10"></path></g><g transform="translate(-6,-14) scale(1,1)"><path fill="none" stroke="#000000" d="M 283.6000097688068 353.2868411842946 L 293 359 L 290.393016505017 348.313389823855" stroke-miterlimit="10"></path></g><g transform="translate(-6,-14) scale(1,1)"><g><path fill="none" stroke="none"></path><text fill="#000000" stroke="none" font-family="Arial" font-size="13px" font-style="normal" font-weight="normal" text-decoration="none" x="243.5" y="352.5">+player</text></g></g><g transform="translate(-6,-14) scale(1,1)"><g><path fill="none" stroke="none"></path><text fill="#000000" stroke="none" font-family="Arial" font-size="13px" font-style="normal" font-weight="normal" text-decoration="none" x="278.5" y="340.5">2..4</text></g></g><g transform="translate(-6,-14) scale(1,1)"><path fill="none" stroke="#000000" d="M 202 125 L 208 199" stroke-miterlimit="10"></path></g><g transform="translate(-6,-14) scale(1,1)"><path fill="#000000" stroke="none" d="M 202.9829459764185 189.2107625973999 L 208 199 L 211.3744432283698 188.53037092832275 L 206.2220508871468 177.07196094147713"></path></g><g transform="translate(-6,-14) scale(1,1)"><path fill="none" stroke="#000000" d="M 202.9829459764185 189.2107625973999 L 208 199 L 211.3744432283698 188.53037092832275 L 206.2220508871468 177.07196094147713 L 202.9829459764185 189.2107625973999" stroke-miterlimit="10"></path></g><g transform="translate(-6,-14) scale(1,1)"><path fill="none" stroke="#000000" d="M 207.01705402358147 134.7892374026001 L 202 125 L 198.6255567716302 135.46962907167725" stroke-miterlimit="10"></path></g><g transform="translate(-6,-14) scale(1,1)"><g><path fill="none" stroke="none"></path><text fill="#000000" stroke="none" font-family="Arial" font-size="13px" font-style="normal" font-weight="normal" text-decoration="none" x="183.5" y="155.5">+explosions</text></g></g><g transform="translate(-6,-14) scale(1,1)"><g><path fill="none" stroke="none"></path><text fill="#000000" stroke="none" font-family="Arial" font-size="13px" font-style="normal" font-weight="normal" text-decoration="none" x="188.5" y="153.5">*</text></g></g><g transform="translate(-6,-14) scale(1,1)"><rect fill="#C0C0C0" stroke="none" x="839" y="31" width="73" height="57" opacity="0.2"></rect></g><g transform="translate(-6,-14) scale(1,1)"><rect fill="#ffffff" stroke="none" x="832" y="24" width="73" height="57"></rect></g><g transform="translate(-6,-14) scale(1,1)"><path fill="none" stroke="#000000" d="M 832 24 L 905 24 L 905 81 L 832 81 L 832 24 Z Z" stroke-miterlimit="10"></path></g><g transform="translate(-6,-14) scale(1,1)"><path fill="none" stroke="#000000" d="M 832 62 L 905 62" stroke-miterlimit="10"></path></g><g transform="translate(-6,-14) scale(1,1)"><path fill="none" stroke="#000000" d="M 832 72 L 905 72" stroke-miterlimit="10"></path></g><g transform="translate(-6,-14) scale(1,1)"><g><path fill="none" stroke="none"></path><text fill="#000000" stroke="none" font-family="Arial" font-size="13px" font-style="normal" font-weight="normal" text-decoration="none" x="836.5" y="41.5">«interface»</text></g></g><g transform="translate(-6,-14) scale(1,1)"><g><path fill="none" stroke="none"></path><text fill="#000000" stroke="none" font-family="Arial" font-size="13px" font-style="normal" font-weight="bold" text-decoration="none" x="851.5" y="56.5">Event</text></g></g><g transform="translate(-6,-14) scale(1,1)"><rect fill="#C0C0C0" stroke="none" x="751" y="119" width="80" height="57" opacity="0.2"></rect></g><g transform="translate(-6,-14) scale(1,1)"><rect fill="#ffffff" stroke="none" x="744" y="112" width="80" height="57"></rect></g><g transform="translate(-6,-14) scale(1,1)"><path fill="none" stroke="#000000" d="M 744 112 L 824 112 L 824 169 L 744 169 L 744 112 Z Z" stroke-miterlimit="10"></path></g><g transform="translate(-6,-14) scale(1,1)"><path fill="none" stroke="#000000" d="M 744 137 L 824 137" stroke-miterlimit="10"></path></g><g transform="translate(-6,-14) scale(1,1)"><path fill="none" stroke="#000000" d="M 744 160 L 824 160" stroke-miterlimit="10"></path></g><g transform="translate(-6,-14) scale(1,1)"><g><path fill="none" stroke="none"></path><text fill="#000000" stroke="none" font-family="Arial" font-size="13px" font-style="normal" font-weight="bold" text-decoration="none" x="756.5" y="131.5">KeyDown</text></g></g><g transform="translate(-6,-14) scale(1,1)"><g><path fill="none" stroke="none"></path><text fill="#000000" stroke="none" font-family="Arial" font-size="13px" font-style="normal" font-weight="normal" text-decoration="none" x="749" y="154.5">+key: String</text></g></g><g transform="translate(-6,-14) scale(1,1)"><rect fill="#C0C0C0" stroke="none" x="839" y="119" width="80" height="57" opacity="0.2"></rect></g><g transform="translate(-6,-14) scale(1,1)"><rect fill="#ffffff" stroke="none" x="832" y="112" width="80" height="57"></rect></g><g transform="translate(-6,-14) scale(1,1)"><path fill="none" stroke="#000000" d="M 832 112 L 912 112 L 912 169 L 832 169 L 832 112 Z Z" stroke-miterlimit="10"></path></g><g transform="translate(-6,-14) scale(1,1)"><path fill="none" stroke="#000000" d="M 832 137 L 912 137" stroke-miterlimit="10"></path></g><g transform="translate(-6,-14) scale(1,1)"><path fill="none" stroke="#000000" d="M 832 160 L 912 160" stroke-miterlimit="10"></path></g><g transform="translate(-6,-14) scale(1,1)"><g><path fill="none" stroke="none"></path><text fill="#000000" stroke="none" font-family="Arial" font-size="13px" font-style="normal" font-weight="bold" text-decoration="none" x="852.5" y="131.5">KeyUp</text></g></g><g transform="translate(-6,-14) scale(1,1)"><g><path fill="none" stroke="none"></path><text fill="#000000" stroke="none" font-family="Arial" font-size="13px" font-style="normal" font-weight="normal" text-decoration="none" x="837" y="154.5">+key: String</text></g></g><g transform="translate(-6,-14) scale(1,1)"><rect fill="#C0C0C0" stroke="none" x="927" y="119" width="95" height="57" opacity="0.2"></rect></g><g transform="translate(-6,-14) scale(1,1)"><rect fill="#ffffff" stroke="none" x="920" y="112" width="95" height="57"></rect></g><g transform="translate(-6,-14) scale(1,1)"><path fill="none" stroke="#000000" d="M 920 112 L 1015 112 L 1015 169 L 920 169 L 920 112 Z Z" stroke-miterlimit="10"></path></g><g transform="translate(-6,-14) scale(1,1)"><path fill="none" stroke="#000000" d="M 920 137 L 1015 137" stroke-miterlimit="10"></path></g><g transform="translate(-6,-14) scale(1,1)"><path fill="none" stroke="#000000" d="M 920 160 L 1015 160" stroke-miterlimit="10"></path></g><g transform="translate(-6,-14) scale(1,1)"><g><path fill="none" stroke="none"></path><text fill="#000000" stroke="none" font-family="Arial" font-size="13px" font-style="normal" font-weight="bold" text-decoration="none" x="955" y="131.5">Tick</text></g></g><g transform="translate(-6,-14) scale(1,1)"><g><path fill="none" stroke="none"></path><text fill="#000000" stroke="none" font-family="Arial" font-size="13px" font-style="normal" font-weight="normal" text-decoration="none" x="925" y="154.5">+time: Number</text></g></g><g transform="translate(-6,-14) scale(1,1)"><path fill="none" stroke="#000000" d="M 812 111 L 839 82" stroke-dasharray="3" stroke-miterlimit="10"></path></g><g transform="translate(-6,-14) scale(1,1)"><path fill="#FFFFFF" stroke="none" d="M 831.3117714793796 102.61288776990548 L 839 82 L 818.9880887558201 91.1391141996949"></path></g><g transform="translate(-6,-14) scale(1,1)"><path fill="none" stroke="#000000" d="M 831.3117714793796 102.61288776990548 L 839 82 L 818.9880887558201 91.1391141996949 L 831.3117714793796 102.61288776990548" stroke-miterlimit="10"></path></g><g transform="translate(-6,-14) scale(1,1)"><path fill="none" stroke="#000000" d="M 871 111 L 869 82" stroke-dasharray="3" stroke-miterlimit="10"></path></g><g transform="translate(-6,-14) scale(1,1)"><path fill="#FFFFFF" stroke="none" d="M 878.7975117360963 101.6979380591232 L 869 82 L 861.9993414103499 102.8564325643471"></path></g><g transform="translate(-6,-14) scale(1,1)"><path fill="none" stroke="#000000" d="M 878.7975117360963 101.6979380591232 L 869 82 L 861.9993414103499 102.8564325643471 L 878.7975117360963 101.6979380591232" stroke-miterlimit="10"></path></g><g transform="translate(-6,-14) scale(1,1)"><path fill="none" stroke="#000000" d="M 934 111 L 902 82" stroke-dasharray="3" stroke-miterlimit="10"></path></g><g transform="translate(-6,-14) scale(1,1)"><path fill="#FFFFFF" stroke="none" d="M 922.7143648062678 89.41047169030783 L 902 82 L 911.4072730384763 101.88726260649153"></path></g><g transform="translate(-6,-14) scale(1,1)"><path fill="none" stroke="#000000" d="M 922.7143648062678 89.41047169030783 L 902 82 L 911.4072730384763 101.88726260649153 L 922.7143648062678 89.41047169030783" stroke-miterlimit="10"></path></g><g transform="translate(-6,-14) scale(1,1)"><rect fill="#C0C0C0" stroke="none" x="615" y="111" width="88" height="70" opacity="0.2"></rect></g><g transform="translate(-6,-14) scale(1,1)"><rect fill="#ffffff" stroke="none" x="608" y="104" width="88" height="70"></rect></g><g transform="translate(-6,-14) scale(1,1)"><path fill="none" stroke="#000000" d="M 608 104 L 696 104 L 696 174 L 608 174 L 608 104 Z Z" stroke-miterlimit="10"></path></g><g transform="translate(-6,-14) scale(1,1)"><path fill="none" stroke="#000000" d="M 608 142 L 696 142" stroke-miterlimit="10"></path></g><g transform="translate(-6,-14) scale(1,1)"><path fill="none" stroke="#000000" d="M 608 152 L 696 152" stroke-miterlimit="10"></path></g><g transform="translate(-6,-14) scale(1,1)"><g><path fill="none" stroke="none"></path><text fill="#000000" stroke="none" font-family="Arial" font-size="13px" font-style="normal" font-weight="normal" text-decoration="none" x="620" y="121.5">«interface»</text></g></g><g transform="translate(-6,-14) scale(1,1)"><g><path fill="none" stroke="none"></path><text fill="#000000" stroke="none" font-family="Arial" font-size="13px" font-style="normal" font-weight="bold" text-decoration="none" x="635.5" y="136.5">Block</text></g></g><g transform="translate(-6,-14) scale(1,1)"><g><path fill="none" stroke="none"></path><text fill="#000000" stroke="none" font-family="Arial" font-size="13px" font-style="normal" font-weight="normal" text-decoration="none" x="613" y="169.5">+draw()</text></g></g><g transform="translate(-6,-14) scale(1,1)"><rect fill="#C0C0C0" stroke="none" x="418" y="188.24365482233503" width="107" height="37" opacity="0.2"></rect></g><g transform="translate(-6,-14) scale(1,1)"><path fill="none" stroke="#000000" d="M 607 153 L 519 181" stroke-miterlimit="10"></path></g><g transform="translate(-6,-14) scale(1,1)"><path fill="#000000" stroke="none" d="M 527.4079336867263 173.90728182432068 L 519 181 L 529.9606160447189 181.9299978065831 L 539.9643671602918 174.32951953990715"></path></g><g transform="translate(-6,-14) scale(1,1)"><path fill="none" stroke="#000000" d="M 527.4079336867263 173.90728182432068 L 519 181 L 529.9606160447189 181.9299978065831 L 539.9643671602918 174.32951953990715 L 527.4079336867263 173.90728182432068" stroke-miterlimit="10"></path></g><g transform="translate(-6,-14) scale(1,1)"><path fill="none" stroke="#000000" d="M 598.5920663132737 160.09271817567932 L 607 153 L 596.0393839552811 152.0700021934169" stroke-miterlimit="10"></path></g><g transform="translate(-6,-14) scale(1,1)"><g><path fill="none" stroke="none"></path><text fill="#000000" stroke="none" font-family="Arial" font-size="13px" font-style="normal" font-weight="normal" text-decoration="none" x="563.5" y="178.5">+blocks</text></g></g><g transform="translate(-6,-14) scale(1,1)"><g><path fill="none" stroke="none"></path><text fill="#000000" stroke="none" font-family="Arial" font-size="13px" font-style="normal" font-weight="normal" text-decoration="none" x="570.5" y="151.5">0..1</text></g></g><g transform="translate(-6,-14) scale(1,1)"><rect fill="#ffffff" stroke="none" x="411" y="181.24365482233503" width="107" height="37"></rect></g><g transform="translate(-6,-14) scale(1,1)"><path fill="none" stroke="#000000" d="M 411 181.24365482233503 L 518 181.24365482233503 L 518 218.24365482233503 L 411 218.24365482233503 L 411 181.24365482233503 Z Z" stroke-miterlimit="10"></path></g><g transform="translate(-6,-14) scale(1,1)"><g><path fill="none" stroke="none"></path><text fill="#000000" stroke="none" font-family="Arial" font-size="13px" font-style="normal" font-weight="normal" text-decoration="none" x="416" y="198.74365482233503">+row: Integer</text></g></g><g transform="translate(-6,-14) scale(1,1)"><g><path fill="none" stroke="none"></path><text fill="#000000" stroke="none" font-family="Arial" font-size="13px" font-style="normal" font-weight="normal" text-decoration="none" x="416" y="213.74365482233503">+column: Integer</text></g></g><g transform="translate(-6,-14) scale(1,1)"><rect fill="#C0C0C0" stroke="none" x="359" y="31" width="171" height="100" opacity="0.2"></rect></g><g transform="translate(-6,-14) scale(1,1)"><rect fill="#ffffff" stroke="none" x="352" y="24" width="171" height="100"></rect></g><g transform="translate(-6,-14) scale(1,1)"><path fill="none" stroke="#000000" d="M 352 24 L 523 24 L 523 124 L 352 124 L 352 24 Z Z" stroke-miterlimit="10"></path></g><g transform="translate(-6,-14) scale(1,1)"><path fill="none" stroke="#000000" d="M 352 49 L 523 49" stroke-miterlimit="10"></path></g><g transform="translate(-6,-14) scale(1,1)"><path fill="none" stroke="#000000" d="M 352 102 L 523 102" stroke-miterlimit="10"></path></g><g transform="translate(-6,-14) scale(1,1)"><g><path fill="none" stroke="none"></path><text fill="#000000" stroke="none" font-family="Arial" font-size="13px" font-style="normal" font-weight="bold" text-decoration="none" x="408.5" y="43.5">Rectangle</text></g></g><g transform="translate(-6,-14) scale(1,1)"><g><path fill="none" stroke="none"></path><text fill="#000000" stroke="none" font-family="Arial" font-size="13px" font-style="normal" font-weight="normal" text-decoration="none" x="357" y="66.5">+coordinate1: Integer</text></g></g><g transform="translate(-6,-14) scale(1,1)"><g><path fill="none" stroke="none"></path><text fill="#000000" stroke="none" font-family="Arial" font-size="13px" font-style="normal" font-weight="normal" text-decoration="none" x="357" y="81.5">+coordinate2_lower: Integer</text></g></g><g transform="translate(-6,-14) scale(1,1)"><g><path fill="none" stroke="none"></path><text fill="#000000" stroke="none" font-family="Arial" font-size="13px" font-style="normal" font-weight="normal" text-decoration="none" x="357" y="96.5">+coordinate2_upper: Integer</text></g></g><g transform="translate(-6,-14) scale(1,1)"><g><path fill="none" stroke="none"></path><text fill="#000000" stroke="none" font-family="Arial" font-size="13px" font-style="normal" font-weight="normal" text-decoration="none" x="357" y="119.5">+draw()</text></g></g><g transform="translate(-6,-14) scale(1,1)"><path fill="none" stroke="#000000" d="M 351 74 L 267 74" stroke-miterlimit="10"></path></g><g transform="translate(-6,-14) scale(1,1)"><path fill="#000000" stroke="none" d="M 277.16267485762415 69.79048224398402 L 267 74 L 277.16267485762415 78.20951775601598 L 289 74"></path></g><g transform="translate(-6,-14) scale(1,1)"><path fill="none" stroke="#000000" d="M 277.16267485762415 69.79048224398402 L 267 74 L 277.16267485762415 78.20951775601598 L 289 74 L 277.16267485762415 69.79048224398402" stroke-miterlimit="10"></path></g><g transform="translate(-6,-14) scale(1,1)"><path fill="none" stroke="#000000" d="M 340.83732514237585 78.20951775601598 L 351 74 L 340.83732514237585 69.79048224398402" stroke-miterlimit="10"></path></g><g transform="translate(-6,-14) scale(1,1)"><g><path fill="none" stroke="none"></path><text fill="#000000" stroke="none" font-family="Arial" font-size="13px" font-style="normal" font-weight="normal" text-decoration="none" x="308.5" y="94.5">+area</text></g></g><g transform="translate(-6,-14) scale(1,1)"><g><path fill="none" stroke="none"></path><text fill="#000000" stroke="none" font-family="Arial" font-size="13px" font-style="normal" font-weight="normal" text-decoration="none" x="317.5" y="67.5">1..2</text></g></g><g transform="translate(-6,-14) scale(1,1)"><rect fill="#C0C0C0" stroke="none" x="663" y="215" width="63" height="44" opacity="0.2"></rect></g><g transform="translate(-6,-14) scale(1,1)"><rect fill="#ffffff" stroke="none" x="656" y="208" width="63" height="44"></rect></g><g transform="translate(-6,-14) scale(1,1)"><path fill="none" stroke="#000000" d="M 656 208 L 719 208 L 719 252 L 656 252 L 656 208 Z Z" stroke-miterlimit="10"></path></g><g transform="translate(-6,-14) scale(1,1)"><path fill="none" stroke="#000000" d="M 656 233 L 719 233" stroke-miterlimit="10"></path></g><g transform="translate(-6,-14) scale(1,1)"><path fill="none" stroke="#000000" d="M 656 243 L 719 243" stroke-miterlimit="10"></path></g><g transform="translate(-6,-14) scale(1,1)"><g><path fill="none" stroke="none"></path><text fill="#000000" stroke="none" font-family="Arial" font-size="13px" font-style="normal" font-weight="bold" text-decoration="none" x="661.5" y="227.5">Obstacle</text></g></g><g transform="translate(-6,-14) scale(1,1)"><rect fill="#C0C0C0" stroke="none" x="583" y="215" width="73" height="57" opacity="0.2"></rect></g><g transform="translate(-6,-14) scale(1,1)"><rect fill="#ffffff" stroke="none" x="576" y="208" width="73" height="57"></rect></g><g transform="translate(-6,-14) scale(1,1)"><path fill="none" stroke="#000000" d="M 576 208 L 649 208 L 649 265 L 576 265 L 576 208 Z Z" stroke-miterlimit="10"></path></g><g transform="translate(-6,-14) scale(1,1)"><path fill="none" stroke="#000000" d="M 576 246 L 649 246" stroke-miterlimit="10"></path></g><g transform="translate(-6,-14) scale(1,1)"><path fill="none" stroke="#000000" d="M 576 256 L 649 256" stroke-miterlimit="10"></path></g><g transform="translate(-6,-14) scale(1,1)"><g><path fill="none" stroke="none"></path><text fill="#000000" stroke="none" font-family="Arial" font-size="13px" font-style="normal" font-weight="normal" text-decoration="none" x="580.5" y="225.5">«interface»</text></g></g><g transform="translate(-6,-14) scale(1,1)"><g><path fill="none" stroke="none"></path><text fill="#000000" stroke="none" font-family="Arial" font-size="13px" font-style="normal" font-weight="bold" text-decoration="none" x="586.5" y="240.5">PowerUp</text></g></g><g transform="translate(-6,-14) scale(1,1)"><path fill="none" stroke="#000000" d="M 678 207 L 666 175" stroke-dasharray="3" stroke-miterlimit="10"></path></g><g transform="translate(-6,-14) scale(1,1)"><path fill="#FFFFFF" stroke="none" d="M 681.0196953404111 191.0750972588421 L 666 175 L 665.2537181466001 196.98733870652123"></path></g><g transform="translate(-6,-14) scale(1,1)"><path fill="none" stroke="#000000" d="M 681.0196953404111 191.0750972588421 L 666 175 L 665.2537181466001 196.98733870652123 L 681.0196953404111 191.0750972588421" stroke-miterlimit="10"></path></g><g transform="translate(-6,-14) scale(1,1)"><path fill="none" stroke="#000000" d="M 624 207 L 637 175" stroke-dasharray="3" stroke-miterlimit="10"></path></g><g transform="translate(-6,-14) scale(1,1)"><path fill="#FFFFFF" stroke="none" d="M 637.1499599093315 196.99948890373577 L 637 175 L 621.5500498823247 190.66202545526423"></path></g><g transform="translate(-6,-14) scale(1,1)"><path fill="none" stroke="#000000" d="M 637.1499599093315 196.99948890373577 L 637 175 L 621.5500498823247 190.66202545526423 L 637.1499599093315 196.99948890373577" stroke-miterlimit="10"></path></g><g transform="translate(-6,-14) scale(1,1)"><rect fill="#C0C0C0" stroke="none" x="455" y="303" width="73" height="44" opacity="0.2"></rect></g><g transform="translate(-6,-14) scale(1,1)"><rect fill="#ffffff" stroke="none" x="448" y="296" width="73" height="44"></rect></g><g transform="translate(-6,-14) scale(1,1)"><path fill="none" stroke="#000000" d="M 448 296 L 521 296 L 521 340 L 448 340 L 448 296 Z Z" stroke-miterlimit="10"></path></g><g transform="translate(-6,-14) scale(1,1)"><path fill="none" stroke="#000000" d="M 448 321 L 521 321" stroke-miterlimit="10"></path></g><g transform="translate(-6,-14) scale(1,1)"><path fill="none" stroke="#000000" d="M 448 331 L 521 331" stroke-miterlimit="10"></path></g><g transform="translate(-6,-14) scale(1,1)"><g><path fill="none" stroke="none"></path><text fill="#000000" stroke="none" font-family="Arial" font-size="13px" font-style="normal" font-weight="bold" text-decoration="none" x="454.5" y="315.5">RunSpeed</text></g></g><g transform="translate(-6,-14) scale(1,1)"><rect fill="#C0C0C0" stroke="none" x="535" y="303" width="99" height="44" opacity="0.2"></rect></g><g transform="translate(-6,-14) scale(1,1)"><rect fill="#ffffff" stroke="none" x="528" y="296" width="99" height="44"></rect></g><g transform="translate(-6,-14) scale(1,1)"><path fill="none" stroke="#000000" d="M 528 296 L 627 296 L 627 340 L 528 340 L 528 296 Z Z" stroke-miterlimit="10"></path></g><g transform="translate(-6,-14) scale(1,1)"><path fill="none" stroke="#000000" d="M 528 321 L 627 321" stroke-miterlimit="10"></path></g><g transform="translate(-6,-14) scale(1,1)"><path fill="none" stroke="#000000" d="M 528 331 L 627 331" stroke-miterlimit="10"></path></g><g transform="translate(-6,-14) scale(1,1)"><g><path fill="none" stroke="none"></path><text fill="#000000" stroke="none" font-family="Arial" font-size="13px" font-style="normal" font-weight="bold" text-decoration="none" x="536" y="315.5">BombStrength</text></g></g><g transform="translate(-6,-14) scale(1,1)"><rect fill="#C0C0C0" stroke="none" x="639" y="303" width="99" height="44" opacity="0.2"></rect></g><g transform="translate(-6,-14) scale(1,1)"><rect fill="#ffffff" stroke="none" x="632" y="296" width="99" height="44"></rect></g><g transform="translate(-6,-14) scale(1,1)"><path fill="none" stroke="#000000" d="M 632 296 L 731 296 L 731 340 L 632 340 L 632 296 Z Z" stroke-miterlimit="10"></path></g><g transform="translate(-6,-14) scale(1,1)"><path fill="none" stroke="#000000" d="M 632 321 L 731 321" stroke-miterlimit="10"></path></g><g transform="translate(-6,-14) scale(1,1)"><path fill="none" stroke="#000000" d="M 632 331 L 731 331" stroke-miterlimit="10"></path></g><g transform="translate(-6,-14) scale(1,1)"><g><path fill="none" stroke="none"></path><text fill="#000000" stroke="none" font-family="Arial" font-size="13px" font-style="normal" font-weight="bold" text-decoration="none" x="639" y="315.5">BombCapacity</text></g></g><g transform="translate(-6,-14) scale(1,1)"><rect fill="#C0C0C0" stroke="none" x="743" y="303" width="50" height="44" opacity="0.2"></rect></g><g transform="translate(-6,-14) scale(1,1)"><rect fill="#ffffff" stroke="none" x="736" y="296" width="50" height="44"></rect></g><g transform="translate(-6,-14) scale(1,1)"><path fill="none" stroke="#000000" d="M 736 296 L 786 296 L 786 340 L 736 340 L 736 296 Z Z" stroke-miterlimit="10"></path></g><g transform="translate(-6,-14) scale(1,1)"><path fill="none" stroke="#000000" d="M 736 321 L 786 321" stroke-miterlimit="10"></path></g><g transform="translate(-6,-14) scale(1,1)"><path fill="none" stroke="#000000" d="M 736 331 L 786 331" stroke-miterlimit="10"></path></g><g transform="translate(-6,-14) scale(1,1)"><g><path fill="none" stroke="none"></path><text fill="#000000" stroke="none" font-family="Arial" font-size="13px" font-style="normal" font-weight="bold" text-decoration="none" x="748" y="315.5">Kick</text></g></g><g transform="translate(-6,-14) scale(1,1)"><path fill="none" stroke="#000000" d="M 520 295 L 575 260" stroke-dasharray="3" stroke-miterlimit="10"></path></g><g transform="translate(-6,-14) scale(1,1)"><path fill="#FFFFFF" stroke="none" d="M 562.3722590548721 278.01499815772235 L 575 260 L 553.3323113862444 263.8093661070217"></path></g><g transform="translate(-6,-14) scale(1,1)"><path fill="none" stroke="#000000" d="M 562.3722590548721 278.01499815772235 L 575 260 L 553.3323113862444 263.8093661070217 L 562.3722590548721 278.01499815772235" stroke-miterlimit="10"></path></g><g transform="translate(-6,-14) scale(1,1)"><path fill="none" stroke="#000000" d="M 587 295 L 599 266" stroke-dasharray="3" stroke-miterlimit="10"></path></g><g transform="translate(-6,-14) scale(1,1)"><path fill="#FFFFFF" stroke="none" d="M 599.0078966244611 287.99999858280273 L 599 266 L 583.4492355727107 281.56193194069914"></path></g><g transform="translate(-6,-14) scale(1,1)"><path fill="none" stroke="#000000" d="M 599.0078966244611 287.99999858280273 L 599 266 L 583.4492355727107 281.56193194069914 L 599.0078966244611 287.99999858280273" stroke-miterlimit="10"></path></g><g transform="translate(-6,-14) scale(1,1)"><path fill="none" stroke="#000000" d="M 662 295 L 637 266" stroke-dasharray="3" stroke-miterlimit="10"></path></g><g transform="translate(-6,-14) scale(1,1)"><path fill="#FFFFFF" stroke="none" d="M 656.647887525386 275.89750048192894 L 637 266 L 643.8945647976219 286.89174421276005"></path></g><g transform="translate(-6,-14) scale(1,1)"><path fill="none" stroke="#000000" d="M 656.647887525386 275.89750048192894 L 637 266 L 643.8945647976219 286.89174421276005 L 656.647887525386 275.89750048192894" stroke-miterlimit="10"></path></g><g transform="translate(-6,-14) scale(1,1)"><path fill="none" stroke="#000000" d="M 735 304 L 650 257" stroke-dasharray="3" stroke-miterlimit="10"></path></g><g transform="translate(-6,-14) scale(1,1)"><path fill="#FFFFFF" stroke="none" d="M 671.8611763072748 259.46758393215856 L 650 257 L 663.7133406800124 274.203031343165"></path></g><g transform="translate(-6,-14) scale(1,1)"><path fill="none" stroke="#000000" d="M 671.8611763072748 259.46758393215856 L 650 257 L 663.7133406800124 274.203031343165 L 671.8611763072748 259.46758393215856" stroke-miterlimit="10"></path></g></g></svg>